<?xml version="1.0" encoding="utf-8" ?>
<svg baseProfile="full" height="200mm" version="1.1" viewBox="0,0,200,200" width="200mm" xmlns="http://www.w3.org/2000/svg" xmlns:ev="http://www.w3.org/2001/xml-events" xmlns:xlink="http://www.w3.org/1999/xlink"><defs /><rect fill="#1a1a1a" height="200" width="200" x="0" y="0" /><text alignment-baseline="middle" fill="#e1ed5e" style="dominant-baseline: central; font-size:9.0px; font-family:Arial;" text-anchor="middle" x="100.0" y="100.0">2024</text><line stroke="#e1ed5e" stroke-width="0.3" x1="100.0" x2="100.0" y1="15.0" y2="10.0" /><path d="M 100.0 14.0 a86.0,86.0 0 0,1 42.35913384403234,11.155469271406648" fill="none" id="id1" stroke="none" /><text fill="#e1ed5e" style="font-size:6.75px; font-family:Arial;" text-anchor="middle"><textPath startOffset="22.145653131862478" xlink:href="#id1">January</textPath></text><line stroke="#e1ed5e" stroke-width="0.3" x1="143.13028292997686" x2="145.6673583964461" y1="26.7553504044142" y2="22.446841604673864" /><path d="M 143.63769802327073 25.89364864446614 a86.0,86.0 0 0,1 29.32050498858742,28.57503671076993" fill="none" id="id2" stroke="none" /><text fill="#e1ed5e" style="font-size:6.75px; font-family:Arial;" text-anchor="middle"><textPath startOffset="20.669276256404974" xlink:href="#id2">February</textPath></text><line stroke="#e1ed5e" stroke-width="0.3" x1="172.87174338648825" x2="177.1583165268699" y1="56.24261187166439" y2="53.66864786411523" /><path d="M 173.72905801456457 55.72781907015455 a86.0,86.0 0 0,1 12.242430191666344,42.057860355516425" fill="none" id="id3" stroke="none" /><text fill="#e1ed5e" style="font-size:6.75px; font-family:Arial;" text-anchor="middle"><textPath startOffset="22.145653131862474" xlink:href="#id3">March</textPath></text><path d="M 120.51834098615036 95.52812308129327 l 4.814080637701723 -1.0492064686449283 a25.927089059489486,25.927089059489486 0 0,0 0.09104394756701283,0.4356782473881912 l -4.8313822960931025 0.9664117699713326" fill="#ff0600" stroke="none" /><path d="M 120.65975698304385 96.23510406497455 l 4.634238660578409 -0.8445126585694659 a25.71055937163344,25.71055937163344 0 0,0 0.07539949958470432,0.4348842769672832 l -4.648052977655348 0.76483534868159" fill="#ff0200" stroke="none" /><path d="M 120.77682067341334 96.94652285012252 l 34.913139624672 -5.131029224833954 a56.288167696239796,56.288167696239796 0 0,0 0.1322918918509135,0.957198228301023 l -34.996076033078126 4.530942688332845" fill="#67ff28" stroke="none" /><path d="M 120.96210409425399 98.7389718711861 l 4.759728256029931 -0.2863334324348384 a25.768333032180077,25.768333032180077 0 0,0 0.022772347782426546,0.44177746329747364 l -4.763942193268931 0.20458417576063415" fill="#ff0300" stroke="none" /><path d="M 120.98066250479742 99.09900007780936 l 4.702002383393692 -0.20192421381399248 a25.70633613350814,25.70633613350814 0 0,0 0.01514875980078076,0.44103961285295173 l -4.704775830191322 0.1211783363969208" fill="#ff0200" stroke="none" /><path d="M 120.99303781780057 99.45929381324524 l 9.400565383268958 -0.24212521817191252 a30.403683009671767,30.403683009671767 0 0,0 0.008959774855134725,0.5218619669873851 l -9.403336589722759 0.08071633521546107" fill="#ff4906" stroke="none" /><line stroke="#e1ed5e" stroke-width="0.3" x1="184.99686870605535" x2="189.99668451229388" y1="99.2704041080226" y2="99.22748670261217" /><path d="M 185.99683186730306 99.26182062694052 a86.0,86.0 0 0,1 -10.086455211305974,41.156179273409016" fill="none" id="id4" stroke="none" /><text fill="#e1ed5e" style="font-size:6.75px; font-family:Arial;" text-anchor="middle"><textPath startOffset="21.40746469413373" xlink:href="#id4">April</textPath></text><path d="M 120.99922638620191 100.18025310272382 l 4.699833627813451 0.04034241919768036 a25.70000677019862,25.70000677019862 0 0,0 -0.007573630943431447,0.4411260333301832 l -4.698448565271351 -0.12101536849693456" fill="#ff0200" stroke="none" /><line stroke="#e1ed5e" stroke-width="0.3" x1="174.33088141563837" x2="178.70328620479359" y1="141.23008692659167" y2="143.65538615756765" /><path d="M 175.20536237346943 141.71514677278685 a86.0,86.0 0 0,1 -30.301960400862466,31.631185727798858" fill="none" id="id5" stroke="none" /><text fill="#e1ed5e" style="font-size:6.75px; font-family:Arial;" text-anchor="middle"><textPath startOffset="22.145653131862474" xlink:href="#id5">May</textPath></text><path d="M 117.423217284605 111.72311816256416 l 3.860183286812679 2.597303589874059 a25.65263376441351,25.65263376441351 0 0,0 -0.24896523994787223,0.3632477255002836 l -3.815028310049487 -2.6631860504443865" fill="#ff0100" stroke="none" /><path d="M 117.01052211995028 112.31430620078461 l 3.91096403000688 2.831236352779279 a25.82820245322279,25.82820245322279 0 0,0 -0.2630762067868748,0.35691339975482655 l -3.861785803636177 -2.897956061802983" fill="#ff0400" stroke="none" /><path d="M 116.79662413953412 112.60449989151573 l 3.759248833029743 2.8210104074769347 a25.70000547954241,25.70000547954241 0 0,0 -0.2678283514848285,0.3505959094992266 l -3.7102685041906103 -2.8851272302170385" fill="#ff0200" stroke="none" /><path d="M 116.1254893667686 113.45245675266167 l 7.218527056046542 6.021952005965302 a30.40058715299345,30.40058715299345 0 0,0 -0.3377439169223402,0.39786148488951717 l -7.114088575617088 -6.144980273304376" fill="#ff4906" stroke="none" /><path d="M 115.6541949942343 113.99807769240083 l 3.5082829653452765 3.1371282607580446 a25.706338607599186,25.706338607599186 0 0,0 -0.29697223091146246,0.32642450364942016 l -3.4539130335919346 -3.1968903399651363" fill="#ff0200" stroke="none" /><path d="M 114.65682725009322 115.03919595460226 l 43.136360969929314 44.26170646113727 a82.80488893752599,82.80488893752599 0 0,0 -1.0264948045383362,0.9833588024958398 l -42.37019367952566 -44.99567739393869" fill="#4bdeff" stroke="none" /><path d="M 114.39649973595853 115.28858382429668 l 43.18949920787558 45.86575147289004 a84.0,84.0 0 0,0 -1.058280914744131,0.9795290154704817 l -42.39578852181748 -46.6003982344929" fill="#4dd2ff" stroke="none" /><path d="M 112.7482090630111 116.68781488649013 l 2.992589867963694 3.9173962005897924 a25.92966399567296,25.92966399567296 0 0,0 -0.3560352910333531,0.2671755199095698 l -2.9249015880195746 -3.968190747763377" fill="#ff0600" stroke="none" /><path d="M 111.5731344415666 117.5232005979908 l 2.6031630500291896 3.9415206438027206 a25.723562516846822,25.723562516846822 0 0,0 -0.37055939289910483,0.24019212150562796 l -2.535118024873075 -3.9856266070122435" fill="#ff0300" stroke="none" /><path d="M 111.27062007382361 117.71928675628689 l 2.466964423678212 3.878477825921648 a25.59657521572963,25.59657521572963 0 0,0 -0.372778613385822,0.23264142533979168 l -2.4000216815026754 -3.920255048102988" fill="#ff0100" stroke="none" /><line stroke="#e1ed5e" stroke-width="0.3" x1="143.1302829299769" x2="145.66735839644613" y1="173.24464959558577" y2="177.55315839532614" /><path d="M 143.63769802327073 174.10635135553383 a86.0,86.0 0 0,1 -40.68552437913181,11.842963189579606" fill="none" id="id6" stroke="none" /><text fill="#e1ed5e" style="font-size:6.75px; font-family:Arial;" text-anchor="middle"><textPath startOffset="21.407464694133747" xlink:href="#id6">June</textPath></text><path d="M 110.65571695917076 118.09573695890943 l 2.7006945007801977 4.586369690537919 a26.32245598618056,26.32245598618056 0 0,0 -0.39133662015708154,0.2259383029914502 l -2.6215654127627173 -4.632054890805541" fill="#ff0c01" stroke="none" /><path d="M 110.34350942703117 118.27599006163325 l 4.61893040124724 8.161207441640972 a30.377623630593305,30.377623630593305 0 0,0 -0.45603439997863343,0.25295459430243294 l -4.478151813112512 -8.239294951376548" fill="#ff4906" stroke="none" /><path d="M 109.71004243097381 118.62028667847754 l 2.1733573005448474 4.167699191696384 a25.70034025452395,25.70034025452395 0 0,0 -0.3929371261155364,0.20063649638246273 l -2.101492952715729 -4.204393639751683" fill="#ff0200" stroke="none" /><path d="M 109.06512990194946 118.94263497670748 l 2.049948207917756 4.2836033287720445 a25.748846716141948,25.748846716141948 0 0,0 -0.4003470979815691,0.18738265656540495 l -1.9761123960646807 -4.318162216907983" fill="#ff0300" stroke="none" /><path d="M 108.73861861582097 119.09545874513695 l 1.9705048124086377 4.305908634611805 a25.735370987087506,25.735370987087506 0 0,0 -0.4032936030661263,0.18038809896394023 l -1.8962978064868845 -4.339100484485596" fill="#ff0300" stroke="none" /><path d="M 107.06938296918513 119.77432235084164 l 1.592441201011834 4.4543414567904165 a25.73043621586443,25.73043621586443 0 0,0 -0.41719357210788427,0.145121580766709 l -1.515741856858928 -4.481021470125716" fill="#ff0300" stroke="none" /><path d="M 106.72888874123015 119.89276391827305 l 1.5147688576667169 4.47814497090457 a25.727399609996475,25.727399609996475 0 0,0 -0.41957378027973063,0.13792223537216444 l -1.437672339739252 -4.503488127678754" fill="#ff0300" stroke="none" /><path d="M 106.0420521117495 120.11202640906438 l 2.3988644650784354 7.985039615862195 a29.33759008279399,29.33759008279399 0 0,0 -0.4835672889529432,0.14075939022901904 l -2.2614371637438855 -8.025042700393731" fill="#ff3a05" stroke="none" /><path d="M 105.69591212413111 120.21278271476187 l 2.984939378734274 10.592496823025668 a32.00503757560725,32.00503757560725 0 0,0 -0.5300927301228645,0.14447913081265396 l -2.802665247676714 -10.642176447982465" fill="#ff6108" stroke="none" /><path d="M 105.3480935250658 120.30758222061773 l 1.2072999782502813 4.584314664348716 a25.740623817520834,25.740623817520834 0 0,0 -0.4282684624246688,0.1088641684175543 l -1.1284262226002153 -4.6043640646015405" fill="#ff0300" stroke="none" /><path d="M 104.29559338865022 120.5559693870025 l 1.036533325022173 4.960187189518628 a26.06733246283942,26.06733246283942 0 0,0 -0.4388044589736507,0.0877731812303406 l -0.9512323805175636 -4.97724976741183" fill="#ff0801" stroke="none" /><path d="M 103.58742460773223 120.69131181640829 l 2.5948258217305376 14.96626579161323 a36.1895435346271,36.1895435346271 0 0,0 -0.6130207042622426,0.10087232360461207 l -2.337527614415223 -15.008604113713512" fill="#ff9d0e" stroke="none" /><path d="M 103.2317021107853 120.74984581791261 l 0.727674979560948 4.672195367590142 a25.72852201314637,25.72852201314637 0 0,0 -0.4369865653290153,0.0642219766445338 l -0.6473633086242472 -4.683998417533558" fill="#ff0300" stroke="none" /><path d="M 102.875027216393 120.80226474461374 l 0.6314083651410034 4.568556394435013 a25.61198265962732,25.61198265962732 0 0,0 -0.4360405631507453,0.05645418073606278 l -0.5528899800994828 -4.578722171371471" fill="#ff0100" stroke="none" /><path d="M 102.51750503828377 120.84855314841334 l 0.5684750721116175 4.7077890904825495 a25.74198713917265,25.74198713917265 0 0,0 -0.4391633244485481,0.04920916651149634 l -0.48757584606227017 -4.716854017501016" fill="#ff0300" stroke="none" /><path d="M 101.44090949804482 120.95050786540614 l 0.6481931613008342 9.4245863064699 a30.446850344027744,30.446850344027744 0 0,0 -0.5217367169559991,0.0313863853055145 l -0.48631209221236993 -9.434324669600105" fill="#ff4a06" stroke="none" /><path d="M 101.08105385017728 120.97215588758144 l 0.3090049541038068 5.994613558276723 a27.002572429778404,27.002572429778404 0 0,0 -0.46312528508173556,0.0198885924468639 l -0.2060539084212417 -5.999034719149418" fill="#ff1602" stroke="none" /><path d="M 100.72087961077811 120.9876233191556 l 0.24310979291566678 7.077876364688088 a28.08205028259626,28.08205028259626 0 0,0 -0.48192366835445705,0.012412644195871634 l -0.12157281049046592 -7.081006726234005" fill="#ff2703" stroke="none" /><line stroke="#e1ed5e" stroke-width="0.3" x1="101.45913802915013" x2="101.54496967792366" y1="184.9874750549273" y2="189.98673829345242" /><path d="M 101.47630435890484 185.9873277026323 a86.0,86.0 0 0,1 -42.54439059252881,-10.42667462771756" fill="none" id="id7" stroke="none" /><text fill="#e1ed5e" style="font-size:6.75px; font-family:Arial;" text-anchor="middle"><textPath startOffset="22.145653131862474" xlink:href="#id7">July</textPath></text><path d="M 100.0 121.0 l 5.800409633241995e-16 4.736393903352759 a25.73639390335276,25.73639390335276 0 0,0 -0.4417994244419906,-0.0037923167059904965 l 0.08130649959313789 -4.735695984841204" fill="#ff0300" stroke="none" /><path d="M 99.27912038922189 120.98762331915562 l -0.16223656425742858 4.7233405527361745 a25.726125969534046,25.726125969534046 0 0,0 -0.4412327549411398,-0.01894843300487057 l 0.2432950797994071 -4.7198595513054755" fill="#ff0300" stroke="none" /><path d="M 98.55909050195518 120.95050786540614 l -0.34510124396703573 5.0176963479686405 a26.029549831645515,26.029549831645515 0 0,0 -0.4455155838826872,-0.03448572382999541 l 0.431185822624959 -5.011032857143591" fill="#ff0701" stroke="none" /><path d="M 98.19965949673042 120.92268563240118 l -0.8089059472640391 9.4007132595466 a30.435451161430194,30.435451161430194 0 0,0 -0.5201569862100639,-0.04925940739927286 l 0.9701624968591183 -9.385442096642144" fill="#ff4a06" stroke="none" /><path d="M 97.12497278360702 120.80226474461374 l -0.6477410965574073 4.68673190282308 a25.73128148149199,25.73128148149199 0 0,0 -0.4370334335709566,-0.06422886466210252 l 0.7280996357360487 -4.674921964862095" fill="#ff0300" stroke="none" /><path d="M 96.76829788921471 120.74984581791261 l -0.7296200017595567 4.684683805370011 a25.741161007945593,25.741161007945593 0 0,0 -0.43603381276473935,-0.07174919796011096 l 0.8099313175773595 -4.671468608914232" fill="#ff0300" stroke="none" /><path d="M 94.30408787586889 120.21278271476187 l -1.2899131023239228 4.5774465423613115 a25.75572209656141,25.75572209656141 0 0,0 -0.4245278727431687,-0.12357387662002507 l 1.3683009874486982 -4.554628971438768" fill="#ff0300" stroke="none" /><path d="M 93.61358852112213 120.00534299687104 l -1.440934221607225 4.513705926171681 a25.738125433012108,25.738125433012108 0 0,0 -0.4197487017322368,-0.13797973552798562 l 1.5182056609872052 -4.488305269241675" fill="#ff0300" stroke="none" /><path d="M 92.93061703081489 119.77432235084164 l -1.591753850882922 4.452418816147496 a25.728394403619994,25.728394403619994 0 0,0 -0.4146079893669744,-0.15224979661460322 l 1.6679509919040154 -4.424438170524173" fill="#ff0300" stroke="none" /><path d="M 92.25597844496254 119.51999308798841 l -1.741643578984992 4.390079544834373 a25.722935608939935,25.722935608939935 0 0,0 -0.4090504567471924,-0.16635725970877957 l 1.8167484969226253 -4.359535028546302" fill="#ff0200" stroke="none" /><path d="M 91.26138138417905 119.09545874513695 l -1.9776050758691683 4.321423991666611 a25.752433813516532,25.752433813516532 0 0,0 -0.40040287073288644,-0.187408761029152 l 2.051496660473545 -4.2868389990669336" fill="#ff0300" stroke="none" /><line stroke="#e1ed5e" stroke-width="0.3" x1="58.13341422392154" x2="55.670673884152215" y1="173.97424548756322" y2="178.32567169271397" /><path d="M 57.64086615596767 174.84453072859336 a86.0,86.0 0 0,1 -31.369924170532244,-30.572349798747897" fill="none" id="id8" stroke="none" /><text fill="#e1ed5e" style="font-size:6.75px; font-family:Arial;" text-anchor="middle"><textPath startOffset="22.145653131862474" xlink:href="#id8">August</textPath></text><path d="M 89.65649057296885 118.27599006163327 l -2.334857327052676 4.125469175194073 a25.74036440088397,25.74036440088397 0 0,0 -0.38268264980828454,-0.22094193088101485 l 2.4053324447213615 -4.084780347036887" fill="#ff0300" stroke="none" /><path d="M 89.34428304082925 118.09573695890944 l -2.4647325731518817 4.185654751220365 a25.857428574211824,25.857428574211824 0 0,0 -0.38055638914023154,-0.22851317740553312 l 2.5362217188495406 -4.142727573278912" fill="#ff0500" stroke="none" /><path d="M 88.72937992617639 117.7192867562869 l -5.119393936531993 8.048537576959806 a30.538718541037603,30.538718541037603 0 0,0 -0.43992386338681216,-0.28515333323800507 l 5.2568034321758175 -7.959470402017906" fill="#ff4b07" stroke="none" /><path d="M 87.83215693770417 117.11559508785305 l -2.7990958623136653 3.9372788707225688 a25.830849050866718,25.830849050866718 0 0,0 -0.3591951638579529,-0.2600295982920005 l 2.8662720365455723 -3.888648501057503" fill="#ff0400" stroke="none" /><path d="M 87.2517909369889 116.68781488649013 l -4.358424482481942 5.70531755487432 a28.17958998630528,28.17958998630528 0 0,0 -0.3818871940171041,-0.2969577918917422 l 4.455721621134274 -5.629658711361784" fill="#ff2803" stroke="none" /><path d="M 86.68645165197938 116.24036423190432 l -6.040007280556803 7.367826790832978 a30.52714855394285,30.52714855394285 0 0,0 -0.4024142011706688,-0.33570823897359386 l 6.165595815889364 -7.263056367947514" fill="#ff4b07" stroke="none" /><path d="M 85.86807049272751 115.53346607816431 l -3.069906556742924 3.374365074334708 a25.561870879586913,25.561870879586913 0 0,0 -0.3220433344883405,-0.2980785025745874 l 3.1273796625452315 -3.321168825627741" fill="#ff0000" stroke="none" /><path d="M 85.08716467003676 114.78537596483092 l -5.474788204072755 5.427995423673512 a28.70950323943604,28.70950323943604 0 0,0 -0.34398523559265237,-0.3529591551633415 l 5.567160240816217 -5.333213576442433" fill="#ff3004" stroke="none" /><path d="M 84.83555147118756 114.52719865689866 l -9.511732224623737 9.11202430710184 a34.17201719123386,34.17201719123386 0 0,0 -0.4021626046799011,-0.42708274965538207 l 9.666750663039892 -8.947400097501967" fill="#ff800b" stroke="none" /><path d="M 82.576782715395 111.72311816256416 l -4.011666140565107 2.6992280143436593 a25.835214276200606,25.835214276200606 0 0,0 -0.24442027104416225,-0.3700834429382454 l 4.057410850529996 -2.629964693066355" fill="#ff0400" stroke="none" /><path d="M 82.18462484594161 111.11811171558189 l -6.087247953076126 3.798892933631556 a28.17538676054645,28.17538676054645 0 0,0 -0.2525481143901857,-0.4125183651287422 l 6.151564031921716 -3.693837452378257" fill="#ff2803" stroke="none" /><line stroke="#e1ed5e" stroke-width="0.3" x1="26.387840678322732" x2="22.057713659400548" y1="142.50000000000003" y2="145.00000000000006" /><path d="M 25.521815274538298 143.00000000000003 a86.0,86.0 0 0,1 -11.493303480769221,-40.785679425670985" fill="none" id="id9" stroke="none" /><text fill="#e1ed5e" style="font-size:6.75px; font-family:Arial;" text-anchor="middle"><textPath startOffset="21.40746469413373" xlink:href="#id9">September</textPath></text><path d="M 81.63589988554817 110.18625677009913 l -4.229291244947267 2.345916560466924 a25.836344584834766,25.836344584834766 0 0,0 -0.21180223186762384,-0.38969225085387815 l 4.268938826430221 -2.272969476138459" fill="#ff0400" stroke="none" /><path d="M 81.1358732173502 109.22738970284198 l -6.436891103663123 3.1486059955282486 a28.1657021146217,28.1657021146217 0 0,0 -0.20872226015035739,-0.43614924753492634 l 6.489992621773392 -3.037644245928219" fill="#ff2803" stroke="none" /><path d="M 80.83023694016515 108.57439118712176 l -4.414467944854011 1.9745353619677906 a25.835940149733542,25.835940149733542 0 0,0 -0.1776111611361422,-0.406409094974191 l 4.447712988007122 -1.89846419721775" fill="#ff0400" stroke="none" /><path d="M 80.68587082218212 108.24405325689762 l -8.74992485187498 3.7348226165721004 a30.51367883054278,30.51367883054278 0 0,0 -0.2014980305671638,-0.48352192057878185 l 8.812748726978628 -3.584068186552037" fill="#ff4b07" stroke="none" /><path d="M 80.05021161711548 106.5578916946017 l -5.217725498184577 1.715170008450419 a26.49240088961952,26.49240088961952 0 0,0 -0.13830961434649253,-0.43325289701700315 l 5.246399828308324 -1.625348077742024" fill="#ff0e01" stroke="none" /><path d="M 79.94057633289273 106.21446072829308 l -4.484329221594003 1.3892566557647155 a25.694597173691097,25.694597173691097 0 0,0 -0.12691134166093224,-0.42244658071236246 l 4.507516883258565 -1.3120724714616294" fill="#ff0200" stroke="none" /><path d="M 79.56144815229197 104.8234425847677 l -4.588443314255774 1.0828601284809638 a25.71448810646419,25.71448810646419 0 0,0 -0.09770175483335296,-0.4304919589793367 l 4.606355930646793 -1.0039338355626009" fill="#ff0200" stroke="none" /><path d="M 79.2786578344484 103.40968896794605 l -9.266544829966264 1.5248064254370828 a30.391160083867632,30.391160083867632 0 0,0 -0.08028839112571526,-0.5155090660327065 l 9.291354713230247 -1.3655091774729262" fill="#ff4906" stroke="none" /><path d="M 79.17382384314188 102.69636545807758 l -4.793147550400685 0.6205689125564053 a25.8331531338396,25.8331531338396 0 0,0 -0.05316452303710664,-0.44027851674320456 l 4.803094159697453 -0.5381967188898015" fill="#ff0400" stroke="none" /><line stroke="#e1ed5e" stroke-width="0.3" x1="15.003131293944662" x2="10.003315487706104" y1="100.72959589197737" y2="100.7725132973878" /><path d="M 14.003168132696942 100.73817937305945 a86.0,86.0 0 0,1 10.791469493833615,-42.45332614584628" fill="none" id="id10" stroke="none" /><text fill="#e1ed5e" style="font-size:6.75px; font-family:Arial;" text-anchor="middle"><textPath startOffset="22.145653131862435" xlink:href="#id10">October</textPath></text><path d="M 79.00696218219943 99.45929381324524 l -15.341260265056091 -0.39513644523124525 a36.3463480779806,36.3463480779806 0 0,0 0.021418925427925353,-0.6235886437365559 l 15.332216652631315 0.6584313535319397" fill="#ff9f0e" stroke="none" /><path d="M 79.01933749520258 99.09900007780938 l -6.272238467355457 -0.2693569075693429 a27.278019475521628,27.278019475521628 0 0,0 0.02410650877325715,-0.46765983009557976 l 6.26669036912563 0.37698853104163466" fill="#ff1a02" stroke="none" /><path d="M 79.48165901384962 95.52812308129327 l -4.717736960632882 -1.0282088126434834 a25.828483757052446,25.828483757052446 0 0,0 0.09813487934510202,-0.43240038549493576 l 4.699391219730118 1.1090435320774275" fill="#ff0400" stroke="none" /><path d="M 79.64726062577567 94.8264132398404 l -4.6774019753446785 -1.1889772912944712 a25.826153358335418,25.826153358335418 0 0,0 0.112910121364074,-0.42873812179876236 l 4.656302373175879 1.2690959174660181" fill="#ff0400" stroke="none" /><path d="M 80.05021161711548 93.44210830539832 l -9.019608442524255 -2.9649244472455227 a30.494425387264307,30.494425387264307 0 0,0 0.16774050919060648,-0.49589500988682744 l 8.967382511761281 3.1193211316065117" fill="#ff4b06" stroke="none" /><path d="M 80.41425534168474 92.42381321644754 l -4.515307772336521 -1.7466180461984138 a25.841350935248194,25.841350935248194 0 0,0 0.16358968733319496,-0.41235287677278576 l 4.484659410037194 1.8238719401847823" fill="#ff0400" stroke="none" /><path d="M 80.5471966667186 92.08871423366112 l -4.471850200613393 -1.8186625462246226 a25.827522933530847,25.827522933530847 0 0,0 0.1705528538343868,-0.4092647616161556 l 4.439971502242528 1.895159817282042" fill="#ff0400" stroke="none" /><path d="M 80.9802524753101 91.09779779509293 l -8.640450309545564 -4.044167026779741 a30.54005600047602,30.54005600047602 0 0,0 0.22631743698762546,-0.4729163998850913 l 8.569753614598033 4.19189592872992" fill="#ff4b07" stroke="none" /><path d="M 81.29705330413844 90.45014215332179 l -4.292342025622968 -2.191700422430889 a25.81951769439773,25.81951769439773 0 0,0 0.2049478696483269,-0.3930145634402105 l 4.254086086999702 2.2650612289755863" fill="#ff0400" stroke="none" /><path d="M 81.63589988554816 89.8137432299009 l -4.219113009076995 -2.340270864604062 a25.824705411014996,25.824705411014996 0 0,0 0.21836219234039603,-0.38582507080433137 l 4.178317451715228 2.4123527055074985" fill="#ff0400" stroke="none" /><line stroke="#e1ed5e" stroke-width="0.3" x1="26.387840678322718" x2="22.05771365940052" y1="57.49999999999999" y2="54.99999999999999" /><path d="M 25.521815274538284 56.99999999999999 a86.0,86.0 0 0,1 29.574782752854787,-30.34633250058573" fill="none" id="id11" stroke="none" /><text fill="#e1ed5e" style="font-size:6.75px; font-family:Arial;" text-anchor="middle"><textPath startOffset="21.40746469413373" xlink:href="#id11">November</textPath></text><path d="M 82.18462484594161 88.88188828441811 l -8.075686199792628 -5.039825463839523 a30.519272467131422,30.519272467131422 0 0,0 0.28118758508756847,-0.44207358777414374 l 7.987980923079167 5.177712726292341" fill="#ff4b07" stroke="none" /><path d="M 82.98947788004972 87.6856937992154 l -3.9180791059926636 -2.836387119093969 a25.836986228032746,25.836986228032746 0 0,0 0.2631656749627092,-0.3570347805182082 l 3.8688114114461354 2.9032282088810404" fill="#ff0400" stroke="none" /><path d="M 83.64595745247003 86.82634096563983 l -7.4275552205906425 -5.98311271666108 a30.537620999766915,30.537620999766915 0 0,0 0.3323557339229495,-0.4054199550995812 l 7.323752667429064 6.109734953459154" fill="#ff4b07" stroke="none" /><path d="M 84.58840730492382 85.73525988315684 l -3.5401088299162344 -3.2766718822143908 a25.823789915755587,25.823789915755587 0 0,0 0.30391423945233764,-0.32274639047566034 l 3.4833387567276253 3.336959732634562" fill="#ff0400" stroke="none" /><path d="M 85.08716467003674 85.21462403516908 l -3.428135690224589 -3.398835561242035 a25.827442126318562,25.827442126318562 0 0,0 0.3148587555577577,-0.3121676712534146 l 3.3692850145368527 3.457183242724123" fill="#ff0400" stroke="none" /><path d="M 85.34317274990677 84.96080404539775 l -6.543293052701872 -6.713995104728072 a30.37509542563963,30.37509542563963 0 0,0 0.3765463373219581,-0.36072287333168274 l 6.4270742295146155 6.825330108365323" fill="#ff4906" stroke="none" /><path d="M 88.72937992617638 82.28071324371311 l -3.8562280659331694 -6.062631022104022 a28.185122810827156,28.185122810827156 0 0,0 0.4104772185723173,-0.256168143152951 l 3.7515867185711538 6.12793496209851" fill="#ff2803" stroke="none" /><line stroke="#e1ed5e" stroke-width="0.3" x1="56.869717070023135" x2="54.33264160355391" y1="26.7553504044142" y2="22.446841604673864" /><path d="M 56.362301976729285 25.89364864446614 a86.0,86.0 0 0,1 42.16139366436587,-11.88097634709845" fill="none" id="id12" stroke="none" /><text fill="#e1ed5e" style="font-size:6.75px; font-family:Arial;" text-anchor="middle"><textPath startOffset="22.145653131862474" xlink:href="#id12">December</textPath></text><path d="M 89.34428304082924 81.90426304109057 l -2.4523672266522625 -4.1646556895410525 a25.833059282357787,25.833059282357787 0 0,0 0.3840607469600437,-0.2217375756425488 l 2.3805140118318193 4.206140162459776" fill="#ff0400" stroke="none" /><path d="M 90.28995756902619 81.37971332152246 l -2.236528824197212 -4.288838917777399 a25.836961902279878,25.836961902279878 0 0,0 0.3950259590688251,-0.20170306937193888 l 2.162575643414805 4.326599938822172" fill="#ff0400" stroke="none" /><path d="M 90.61103034731259 81.2157712731953 l -2.148360863366593 -4.298160856622093 a25.80516817069326,25.80516817069326 0 0,0 0.39793996324514797,-0.1946523770490596 l 2.0742606508593924 4.334406983768367" fill="#ff0400" stroke="none" /><path d="M 91.5904679813234 80.7573450057729 l -2.944993543501473 -6.738721559293525 a28.354138646024612,28.354138646024612 0 0,0 0.44767799279887255,-0.19108711454687946 l 2.828880475532169 6.788283323499808" fill="#ff2b04" stroke="none" /><path d="M 92.25597844496254 80.48000691201159 l -2.6547401571546927 -6.691679400654009 a28.19904288799191,28.19904288799191 0 0,0 0.45149049476559294,-0.1746462224958295 l 2.5394773998955706 6.736265511287879" fill="#ff2803" stroke="none" /><path d="M 92.93061703081487 80.22567764915836 l -1.6280933473272112 -4.554066855288794 a25.836342923123947,25.836342923123947 0 0,0 0.4189107446090288,-0.14571890250049171 l 1.549676830673178 4.581344190357871" fill="#ff0400" stroke="none" /><path d="M 93.61358852112211 79.99465700312896 l -2.1848058796090677 -6.843873300008456 a28.184147721069145,28.184147721069145 0 0,0 0.4621654891562025,-0.14318004993549097 l 2.066999757581249 6.880369937750589" fill="#ff2803" stroke="none" /><path d="M 95.00130118170881 79.60360301121753 l -1.1516284148131033 -4.699036926597646 a25.83809839124146,25.83809839124146 0 0,0 0.43170275876149006,-0.10188067560204182 l 1.0707935023117074 4.718113745845921" fill="#ff0400" stroke="none" /><path d="M 96.76829788921471 79.25015418208739 l -1.084646909685027 -6.964211233370988 a28.048169763967092,28.048169763967092 0 0,0 0.4763846661171756,-0.07001214071227753 l 0.9649371379601667 6.98180444738215" fill="#ff2603" stroke="none" /><path d="M 97.48249496171623 79.15144685158666 l -0.8614123479139186 -7.133729960844854 a28.185550388619795,28.185550388619795 0 0,0 0.4808509903744819,-0.05388035643064732 l 0.7388254559386377 7.147466077782473" fill="#ff2803" stroke="none" /><path d="M 98.5590905019552 79.04949213459386 l -1.0737696320862615 -15.612374790493531 a36.64925646226135,36.64925646226135 0 0,0 0.628021044194753,-0.03778018650492894 l 0.8056042357590247 15.628506954823154" fill="#ffa30f" stroke="none" /><path d="M 98.9189461498227 79.02784411241856 l -0.2482107719709759 -4.815222666196073 a25.821615695217822,25.821615695217822 0 0,0 0.4428705139563336,-0.01901876542382534 l 0.1655144974138222 4.818774000045726" fill="#ff0400" stroke="none" /><path d="M 99.27912038922189 79.0123766808444 l -0.2472392203935004 -7.198100140104593 a28.202344955573466,28.202344955573466 0 0,0 0.4839880778082283,-0.012465816060436315 l 0.12363782851452819 7.201283673515074" fill="#ff2803" stroke="none" /><path d="M 99.63950707515114 79.00309439819443 l -0.2043144217431455 -11.900290770552456 a32.90204456413385,32.90204456413385 0 0,0 0.5648073465919947,-0.004848191775832037 l 2.9151601557551353e-15 11.902044564133853" fill="#ff6e0a" stroke="none" /></svg>