<?xml version="1.0" encoding="utf-8" ?>
<svg baseProfile="full" height="200mm" version="1.1" viewBox="0,0,200,200" width="200mm" xmlns="http://www.w3.org/2000/svg" xmlns:ev="http://www.w3.org/2001/xml-events" xmlns:xlink="http://www.w3.org/1999/xlink"><defs /><rect fill="#1a1a1a" height="200" width="200" x="0" y="0" /><rect fill="#1a1a1a" height="200" width="180" x="10" y="0" /><text alignment-baseline="middle" fill="#e1ed5e" style="dominant-baseline: central; font-size:9.0px; font-family:Arial;" text-anchor="middle" x="100.0" y="100.0">2025</text><line stroke="#e1ed5e" stroke-width="0.3" x1="100.0" x2="100.0" y1="15.0" y2="10.0" /><path d="M 100.0 14.0 a86.0,86.0 0 0,1 42.46469731375804,11.215312516191453" fill="none" id="id13" stroke="none" /><text fill="#e1ed5e" style="font-size:6.75px; font-family:Arial;" text-anchor="middle"><textPath startOffset="22.20632615414155" xlink:href="#id13">January</textPath></text><path d="M 100.72285384407766 79.0124445844662 l 0.44359851693676794 -12.87957245124478 a33.88720940200368,33.88720940200368 0 0,0 0.5827941114417174,0.025096340378659026 l -0.665233460767817 12.870028384341927" fill="#ff5307" stroke="none" /><path d="M 101.80526077348638 79.07773832637324 l 0.7458697509796499 -8.644336781495372 a29.676455501951256,29.676455501951256 0 0,0 0.5085624120084158,0.04829412892851085 l -0.8945572900783099 8.630217108051685" fill="#ff1001" stroke="none" /><path d="M 102.88285421437855 79.19881850522331 l 1.7659843446120798 -12.742427517143376 a33.864220137072735,33.864220137072735 0 0,0 0.5767093130766556,0.08499196146718672 l -1.9850626381173913 12.71014107151522" fill="#ff5307" stroke="none" /><path d="M 103.59715602781102 79.31037775812273 l 2.2053599040561402 -12.684482677297211 a33.8747704094897,33.8747704094897 0 0,0 0.5736206490063629,0.10482550711499686 l -2.423375674165404 12.644641688831477" fill="#ff5307" stroke="none" /><path d="M 103.95276090670814 79.375362276772 l 2.4212676253733334 -12.633642353514848 a33.86357088953939,33.86357088953939 0 0,0 0.5715422389830466,0.11464599634977438 l -2.6383762738235053 12.590092401087865" fill="#ff5307" stroke="none" /><path d="M 106.40334571778207 80.00007090966166 l 5.220343854654944 -16.30499297115036 a38.12030331945367,38.12030331945367 0 0,0 0.6232073786141827,0.20546167442082075 l -5.500234055511544 16.212717572470304" fill="#ff940d" stroke="none" /><path d="M 108.43124777332544 80.76684994638697 l 5.077382663167692 -11.582397441725412 a33.64641234525916,33.64641234525916 0 0,0 0.5284375448050738,0.23709452276933107 l -5.276002326439547 11.49328258843955" fill="#ff5007" stroke="none" /><path d="M 108.76106565485865 80.91482961587045 l 5.289828596133609 -11.523401836860177 a33.67955348071159,33.67955348071159 0 0,0 0.5247944634566332,0.24639803731838453 l -5.4874012708898405 11.43063881690179" fill="#ff5007" stroke="none" /><line stroke="#e1ed5e" stroke-width="0.3" x1="143.23703022742887" x2="145.7803849466894" y1="26.81831364943548" y2="22.513508569990506" /><path d="M 143.74570117128098 25.957352633546492 a86.0,86.0 0 0,1 28.547481713284135,27.462654790039103" fill="none" id="id14" stroke="none" /><text fill="#e1ed5e" style="font-size:6.75px; font-family:Arial;" text-anchor="middle"><textPath startOffset="19.985693538727396" xlink:href="#id14">February</textPath></text><path d="M 113.06298171725822 83.55741782278167 l 7.887100619267271 -9.92761858504009 a33.679273123822185,33.679273123822185 0 0,0 0.45081567685355667,0.3645282585533739 l -8.056819694685318 9.790384229222587" fill="#ff5007" stroke="none" /><path d="M 114.94478906791727 85.2469230424477 l 6.173900948304116 -6.094701999787366 a29.67539309689668,29.67539309689668 0 0,0 0.35573128243556956,0.36661235621237975 l -6.277896494442794 5.987525448024872" fill="#ff1001" stroke="none" /><path d="M 117.04232023915458 87.72973835380427 l 7.033834228721003 -5.0642744151752614 a29.66727750272979,29.66727750272979 0 0,0 0.29481840093313727,0.4169997202908862 l -7.119965249458023 4.942448194552583" fill="#ff1001" stroke="none" /><line stroke="#e1ed5e" stroke-width="0.3" x1="172.23445277983987" x2="176.4835382374775" y1="55.19839476539836" y2="52.563006222186495" /><path d="M 173.08426987136738 54.67131705675599 a86.0,86.0 0 0,1 12.851231095245387,41.99856678651699" fill="none" id="id15" stroke="none" /><text fill="#e1ed5e" style="font-size:6.75px; font-family:Arial;" text-anchor="middle"><textPath startOffset="22.20632615414155" xlink:href="#id15">March</textPath></text><path d="M 118.03404312379186 89.2402003453031 l 10.84639505046003 -6.471373996254892 a33.63024017942841,33.63024017942841 0 0,0 0.29232738047590195,0.49968225254594734 l -10.95618210540626 6.283712331355049" fill="#ff4f07" stroke="none" /><path d="M 118.21658344932153 89.55222093294921 l 7.525076876533688 -4.315866413003192 a29.67487664999515,29.67487664999515 0 0,0 0.2503179830541069,0.4452877606221149 l -7.598252500880228 4.185695142446283" fill="#ff1001" stroke="none" /><path d="M 118.73160827565052 90.50648371742162 l 7.5205146170918615 -3.8115321930759793 a29.4312465131051,29.4312465131051 0 0,0 0.22513500279191695,0.4538584277044192 l -7.5850096328371865 3.6815141768726103" fill="#ff0c01" stroke="none" /><path d="M 118.89224826269711 90.83032412892265 l 11.366483243000028 -5.516917080649381 a33.63460784465277,33.63460784465277 0 0,0 0.24832239760281913,0.5230302994584543 l -11.459763834444603 5.320444365550387" fill="#ff4f07" stroke="none" /><path d="M 119.196687751892 91.48605970444005 l 11.748375170231029 -5.210532465910818 a33.852002478945124,33.852002478945124 0 0,0 0.23165939269776264,0.5347018180820258 l -11.836325272771472 5.00753150324219" fill="#ff5307" stroke="none" /><path d="M 119.61058180528143 92.48833698450437 l 8.104973900896386 -3.104539849833744 a29.679214803968,29.679214803968 0 0,0 0.17863412229029482,0.47865063644002165 l -8.157212611688307 2.9645660763643895" fill="#ff1001" stroke="none" /><path d="M 119.7369772167798 92.82701384747503 l 8.110102457706043 -2.947444889140704 a29.629089943268134,29.629089943268134 0 0,0 0.1700807386223823,0.4808411514040526 l -8.159636277138235 2.807406111310037" fill="#ff1001" stroke="none" /><path d="M 119.97218684219823 93.5106431181261 l 12.247946184180075 -3.979598953640775 a33.87825273716858,33.87825273716858 0 0,0 0.17543210498484962,0.5561677139477418 l -12.314633772933131 3.768181073266614" fill="#ff5307" stroke="none" /><path d="M 120.53481517161879 95.60439243477599 l 8.4868115139897 -1.8166558882439963 a29.67906724771042,29.67906724771042 0 0,0 0.10263403619594694,0.5004800102274966 l -8.516824846100645 1.6703002218530878" fill="#ff1001" stroke="none" /><path d="M 120.6074358757038 95.95851677861258 l 12.644694713127077 -2.4798486250742298 a33.885571527544535,33.885571527544535 0 0,0 0.10732734571691945,0.5733469724498556 l -12.685507782753856 2.2618235751618117" fill="#ff5307" stroke="none" /><path d="M 120.78858239683441 97.02765380044208 l 12.778910541823914 -1.8271253642222751 a33.908870660616394,33.908870660616394 0 0,0 0.07764162708537092,0.5785203047143096 l -12.80846816796712 1.606886717443301" fill="#ff5407" stroke="none" /><path d="M 120.83666639777658 97.38593545837742 l 12.781719317494487 -1.603530939690045 a33.881912132356554,33.881912132356554 0 0,0 0.06761804652526102,0.579310128983322 l -12.807427717023337 1.3832770723818704" fill="#ff5307" stroke="none" /><path d="M 120.96714384426684 98.82574320788733 l 62.90143153280055 -3.5227703763380056 a84.0,84.0 0 0,0 0.0684255670660141,1.444355573508001 l -62.95275070810006 2.4395036962070047" fill="#4dd2ff" stroke="none" /><line stroke="#e1ed5e" stroke-width="0.3" x1="184.98032266829074" x2="189.97916517819016" y1="98.17113171792111" y2="98.06355123074" /><path d="M 185.9800911702706 98.14961562048488 a86.0,86.0 0 0,1 -9.607161424134198,41.387399972396054" fill="none" id="id16" stroke="none" /><text fill="#e1ed5e" style="font-size:6.75px; font-family:Arial;" text-anchor="middle"><textPath startOffset="21.466115282336823" xlink:href="#id16">April</textPath></text><path d="M 120.95626037817324 101.35467743843564 l 17.0587433963885 1.1027298950350657 a38.09434817374539,38.09434817374539 0 0,0 -0.04793256067567888,0.6540017078228768 l -17.037234277048483 -1.3962047393547126" fill="#ff930d" stroke="none" /><path d="M 120.89721153311464 102.0752229133903 l 8.60898111866323 0.8549253018798151 a29.65132667128541,29.65132667128541 0 0,0 -0.05480934565808457,0.507466469840741 l -8.592989471504094 -1.0029880936053475" fill="#ff1001" stroke="none" /><path d="M 120.64145759157962 103.86396538481128 l 12.64103013763895 2.3663301229327174 a33.86060500876203,33.86060500876203 0 0,0 -0.11217545523543512,0.5719802295253675 l -12.598424749427851 -2.58357407952603" fill="#ff5307" stroke="none" /><path d="M 120.23288151984713 105.62410040840565 l 8.245634289201364 2.2920252425721457 a29.558262939629817,29.558262939629817 0 0,0 -0.14048248963008494,0.48903797597353993 l -8.20495916268518 -2.433620694050268" fill="#ff0f01" stroke="none" /><path d="M 120.02730092923936 106.31721596034902 l 8.278412429967494 2.611261463225469 a29.680483787783185,29.680483787783185 0 0,0 -0.15788285869914453,0.48591347502052734 l -8.232237320252102 -2.753373838223791" fill="#ff1001" stroke="none" /><path d="M 119.79798401119884 107.00284435728193 l 8.167694690902849 2.889036310254453 a29.663588596290296,29.663588596290296 0 0,0 -0.17441588205542255,0.47991759877587786 l -8.1167545478422 -3.029201706036462" fill="#ff1001" stroke="none" /><path d="M 119.54520255179757 107.68017299344265 l 8.104760544820413 3.184718239152989 a29.70801778544758,29.70801778544758 0 0,0 -0.19111788278137415,0.47433891159988156 l -8.048740047781646 -3.323756518595684" fill="#ff1101" stroke="none" /><path d="M 118.81262510543309 109.33194174019688 l 7.554152264533574 3.747212759204173 a29.432485985668773,29.432485985668773 0 0,0 -0.22904266720357072,0.45192291167611287 l -7.488530927543733 -3.8766898825829803" fill="#ff0c01" stroke="none" /><line stroke="#e1ed5e" stroke-width="0.3" x1="174.80103733775053" x2="179.2010983576182" y1="140.37084112569926" y2="142.7455964860345" /><path d="M 175.68104954172406 140.8457921977663 a86.0,86.0 0 0,1 -30.038265399797805,32.042727171017184" fill="none" id="id17" stroke="none" /><text fill="#e1ed5e" style="font-size:6.75px; font-family:Arial;" text-anchor="middle"><textPath startOffset="22.206326154141568" xlink:href="#id17">May</textPath></text><path d="M 117.75023020441432 111.22182372390056 l 7.330548012069353 4.634425393005551 a29.6726485505057,29.6726485505057 0 0,0 -0.2766552512814778,0.42937509369622334 l -7.2496878974108245 -4.759922086623227" fill="#ff1001" stroke="none" /><path d="M 117.35343817320211 111.8261652097733 l 6.954844069427919 4.739644913725459 a29.416299064212268,29.416299064212268 0 0,0 -0.28875472398781044,0.41597271624941107 l -6.872228438277972 -4.858658892161889" fill="#ff0c01" stroke="none" /><path d="M 116.498646956653 112.99209946851258 l 13.426995750432836 10.573283058376793 a38.090305132287696,38.090305132287696 0 0,0 -0.410073129275015,0.511629280396661 l -13.243004709102967 -10.802840172351706" fill="#ff930d" stroke="none" /><path d="M 116.27256486870786 113.27417163493432 l 6.7001847299711494 5.465604396663589 a29.646693404797404,29.646693404797404 0 0,0 -0.3259780998617822,0.3926616206830391 l -6.605110630215823 -5.5801272744603985" fill="#ff1001" stroke="none" /><path d="M 115.56566222782051 114.09645910891815 l 6.4074788935058775 5.802693318895733 a29.64448006093371,29.64448006093371 0 0,0 -0.34578675590594815,0.37528322982219414 l -6.306645729604207 -5.912127803519261" fill="#ff1001" stroke="none" /><path d="M 115.32070863581623 114.36230785411682 l 6.3058275836581945 5.911360837432669 a29.643358633376103,29.643358633376103 0 0,0 -0.3521820844833881,0.3692615075754136 l -6.203138947795842 -6.0190294615905895" fill="#ff1001" stroke="none" /><path d="M 114.0293411484842 115.62618273729858 l 5.780959658441149 6.438957543598738 a29.65330392513698,29.65330392513698 0 0,0 -0.38275022811873705,0.33773257470884377 l -5.669267077415824 -6.53751326007987" fill="#ff1001" stroke="none" /><path d="M 113.48314897796784 116.09983520530334 l 5.543227940413196 6.619006916849805 a29.63357565349856,29.63357565349856 0 0,0 -0.3938864839486773,0.3241417606344619 l -5.428471327919828 -6.713443796341445" fill="#ff1001" stroke="none" /><path d="M 113.20401910651253 116.32954008644616 l 6.596507824508115 8.157966001255787 a31.491249913925515,31.491249913925515 0 0,0 -0.42444582538580855,0.3372054338681354 l -6.455104506404956 -8.270305349129048" fill="#ff2e04" stroke="none" /><path d="M 112.92097659922987 116.55440617244103 l 10.489717322184598 13.439467199088059 a38.04856146701837,38.04856146701837 0 0,0 -0.5197637717636675,0.39853269632414634 l -10.256824821927436 -13.618039237239577" fill="#ff920d" stroke="none" /><path d="M 112.34349029814194 116.9893568818739 l 5.089311356383992 7.004836138575549 a29.658453638526517,29.658453638526517 0 0,0 -0.4156034478132938,0.2965220250588493 l -4.967980580721814 -7.091402425478618" fill="#ff1001" stroke="none" /><path d="M 111.7513745106137 117.40417183066458 l 9.416426418455789 13.946036973768036 a37.82738939253196,37.82738939253196 0 0,0 -0.542778547837399,0.359724024697043 l -9.174973171878426 -14.106059019556398" fill="#ff8f0d" stroke="none" /><line stroke="#e1ed5e" stroke-width="0.3" x1="143.8653032363475" x2="146.44561519142675" y1="172.8068346515853" y2="177.08958963109032" /><path d="M 144.38136562736335 173.6633856474863 a86.0,86.0 0 0,1 -40.68145358897372,12.25698825130547" fill="none" id="id18" stroke="none" /><text fill="#e1ed5e" style="font-size:6.75px; font-family:Arial;" text-anchor="middle"><textPath startOffset="21.466115282336833" xlink:href="#id18">June</textPath></text><path d="M 110.5260780823613 118.17145234162733 l 8.563173009695904 14.782836401294485 a38.083915946334486,38.083915946334486 0 0,0 -0.5700821875333169,0.32370754431257964 l -8.307442055241388 -14.928047111401694" fill="#ff930d" stroke="none" /><path d="M 109.57404056367764 118.69057910512821 l 3.9531247163730834 7.7173466868441025 a29.670907386666254,29.670907386666254 0 0,0 -0.456573227500377,0.22893529457341286 l -3.819697581189946 -7.784249822326817" fill="#ff1001" stroke="none" /><path d="M 109.2508944713604 118.85261126421891 l 3.8097068808862047 7.7638895436892374 a29.648227989876236,29.648227989876236 0 0,0 -0.4600943770543614,0.220873260875342 l -3.675499835831611 -7.828317081064139" fill="#ff1001" stroke="none" /><path d="M 108.92500713936063 119.00905698771935 l 3.6754433955179384 7.828196870836601 a29.648095189244415,29.648095189244415 0 0,0 -0.4638261016286094,0.21291981402400886 l -3.54014929812191 -7.890303755194685" fill="#ff1001" stroke="none" /><path d="M 108.59647513512805 119.15986991738527 l 6.980573188264143 15.558338985870416 a38.05257499722454,38.05257499722454 0 0,0 -0.5999248027436346,0.2629894033580216 l -6.711727710862754 -15.67619294252289" fill="#ff930d" stroke="none" /><path d="M 107.2578585660854 119.70592522655815 l 2.987868233362783 8.112407738087432 a29.64514406409282,29.64514406409282 0 0,0 -0.48036488796782445,0.17224175826117116 l -2.8477837847652236 -8.162637037388563" fill="#ff1001" stroke="none" /><path d="M 106.57524785965236 119.94407469862006 l 2.631076754972285 7.980595174361146 a29.403122290410387,29.403122290410387 0 0,0 -0.4820413043937655,0.15433440330421264 l -2.493314105487579 -8.024702424325065" fill="#ff0c01" stroke="none" /><path d="M 105.18746579009965 120.34920634021253 l 3.3651062944237813 13.20051931188967 a34.62268881228455,34.62268881228455 0 0,0 -0.5787705324243079,0.14224771545280115 l -3.137382477256262 -13.2564882856565" fill="#ff5f08" stroke="none" /><path d="M 104.48393922423573 120.51570834832081 l 2.7546724000597638 12.603662255129619 a33.901182979596484,33.901182979596484 0 0,0 -0.5711680002774417,0.1196938078205836 l -2.537312938352944 -12.649212043676743" fill="#ff5307" stroke="none" /><path d="M 103.41894727170886 120.7198165907248 l 1.4079705453688436 8.532711722870179 a29.648095189244415,29.648095189244415 0 0,0 -0.5042493482818552,0.07875337779000877 l -1.260885333478471 -8.555683408007292" fill="#ff1001" stroke="none" /><path d="M 102.70371172650421 120.8252237178851 l 2.1985256678838123 16.93404974885804 a38.076169242811545,38.076169242811545 0 0,0 -0.6506901417380739,0.07878951441002052 l -1.9067081030943578 -16.969384791993413" fill="#ff930d" stroke="none" /><path d="M 100.90346689309514 120.98055641714683 l 0.37219050437077816 8.643110151082336 a29.6511200925248,29.6511200925248 0 0,0 -0.5101117256895243,0.017569279247780324 l -0.22335842700660152 -8.64823622875621" fill="#ff1001" stroke="none" /><line stroke="#e1ed5e" stroke-width="0.3" x1="102.19456741930631" x2="102.32365962044197" y1="184.97166512339345" y2="189.96999836594603" /><path d="M 102.22038585953345 185.97133177190398 a86.0,86.0 0 0,1 -42.740103519485714,-10.115201625700543" fill="none" id="id19" stroke="none" /><text fill="#e1ed5e" style="font-size:6.75px; font-family:Arial;" text-anchor="middle"><textPath startOffset="22.20632615414155" xlink:href="#id19">July</textPath></text><path d="M 100.18074693466247 120.99922214144158 l 0.07443260436741048 8.647597795205623 a29.647918121735316,29.647918121735316 0 0,0 -0.5103590780597259,0.0 l 0.07443260436740451 -8.647597795205623" fill="#ff1001" stroke="none" /><path d="M 99.09653310690486 120.98055641714683 l -0.5542168779617334 12.870176609987517 a33.88210395549141,33.88210395549141 0 0,0 -0.5824687521517582,-0.030106981291077774 l 0.7756736985269804 -12.858729821934237" fill="#ff5307" stroke="none" /><path d="M 98.73552117531835 120.96189622390904 l -1.0269700135107447 17.02459418701495 a38.05554087800189,38.05554087800189 0 0,0 -0.653535485681294,-0.04507163342686143 l 1.3198682599709688 -17.004394209071805" fill="#ff930d" stroke="none" /><path d="M 98.01472825383883 120.90594882070398 l -0.8171499064263195 8.605015487489215 a29.64372752402005,29.64372752402005 0 0,0 -0.5075675301306283,-0.05261144981645597 l 0.965150033162541 -8.589674669216999" fill="#ff1001" stroke="none" /><path d="M 97.2962882734958 120.8252237178851 l -1.6583479312322307 12.77335387920823 a33.880554614786824,33.880554614786824 0 0,0 -0.5776979962994395,-0.08006367829096792 l 1.8779745187185013 -12.742915635424657" fill="#ff5307" stroke="none" /><path d="M 96.22490169976321 120.6578951692458 l -1.4519443571644994 7.9452538547144105 a29.076831138024122,29.076831138024122 0 0,0 -0.49158174855374853,-0.09421281208474576 l 1.588493720289943 -7.919083844281197" fill="#ff0701" stroke="none" /><path d="M 95.51606077576429 120.51570834832081 l -1.8496147692002607 8.462683204214745 a29.66245241310693,29.66245241310693 0 0,0 -0.49787699024825005,-0.11331518203218409 l 1.9950119088413734 -8.429591288604874" fill="#ff1001" stroke="none" /><path d="M 94.46302465271185 120.25689768951611 l -2.2817177029225366 8.347612038239797 a29.65383512766427,29.65383512766427 0 0,0 -0.49122118986090174,-0.13882401493053412 l 2.425070060888052 -8.30709922997074" fill="#ff1001" stroke="none" /><path d="M 93.76903079525671 120.05430185196036 l -4.999119167983672 16.08960684837726 a37.8483423811083,37.8483423811083 0 0,0 -0.620494114547882,-0.19866262091992148 l 5.2753346276224935 -16.001171380797633" fill="#ff8f0d" stroke="none" /><path d="M 92.7421414339146 119.70592522655815 l -2.9996078024838417 8.144282025686897 a29.67911151458769,29.67911151458769 0 0,0 -0.47787578211707044,-0.18069173059144797 l 3.1393538053611953 -8.091442044988815" fill="#ff1001" stroke="none" /><path d="M 92.40401165467489 119.57807347666478 l -4.646456056969769 11.975881735710418 a33.84567231549495,33.84567231549495 0 0,0 -0.5413356189508722,-0.21540861467448247 l 4.851912751962499 -11.89412627662987" fill="#ff5307" stroke="none" /><path d="M 91.40352486487194 119.15986991738527 l -3.539593590215543 7.889065190430555 a29.64673767167468,29.64673767167468 0 0,0 -0.46380486410632527,-0.21291006491916292 l 3.674866450089288 -7.826968055177318" fill="#ff1001" stroke="none" /><path d="M 90.7491055286396 118.85261126421891 l -3.818436555907623 7.7816799498117275 a29.668044795269203,29.668044795269203 0 0,0 -0.4565291782040028,-0.22891320734176246 l 3.9518196417943865 -7.7147989015606635" fill="#ff1001" stroke="none" /><path d="M 90.42595943632237 118.69057910512821 l -3.938055814021148 7.687928959860076 a29.637854784968372,29.637854784968372 0 0,0 -0.4520606912963811,-0.23649678797853602 l 4.069807407844024 -7.619002752936823" fill="#ff1001" stroke="none" /><line stroke="#e1ed5e" stroke-width="0.3" x1="58.666819895761336" x2="56.23545636021788" y1="174.27360380694188" y2="178.64263932499728" /><path d="M 58.180547188652646 175.14741091055294 a86.0,86.0 0 0,1 -31.652253787137756,-30.449443065178592" fill="none" id="id20" stroke="none" /><text fill="#e1ed5e" style="font-size:6.75px; font-family:Arial;" text-anchor="middle"><textPath startOffset="22.20632615414155" xlink:href="#id20">August</textPath></text><path d="M 89.7882731507175 118.34994917583269 l -4.205131751781215 7.556405989089629 a29.647682031723193,29.647682031723193 0 0,0 -0.4437993049809597,-0.2520008278185681 l 4.334579823683382 -7.4829019954764275" fill="#ff1001" stroke="none" /><path d="M 89.4739219176387 118.17145234162733 l -6.403523306975915 11.054574902517695 a33.77531749188089,33.77531749188089 0 0,0 -0.5005697128424007,-0.2957454096018549 l 6.592860890846698 -10.94271092062209" fill="#ff5207" stroke="none" /><path d="M 89.1626897886671 117.98757091392108 l -4.863336486405396 8.072077685475566 a30.42393123597337,30.42393123597337 0 0,0 -0.4462477924051877,-0.27412184163173897 l 5.001563478742893 -7.987167377015449" fill="#ff1d02" stroke="none" /><path d="M 88.24862548938628 117.40417183066458 l -7.073799232844971 10.476529127112943 a33.64105605310901,33.64105605310901 0 0,0 -0.4771312828301887,-0.328175247045919 l 7.25308740029805 -10.353213090701923" fill="#ff4f07" stroke="none" /><path d="M 87.65650970185807 116.9893568818739 l -7.264838229845669 9.999191994707386 a33.359681025530044,33.359681025530044 0 0,0 -0.4616583184791273,-0.34152378731922556 l 7.4358815187433605 -9.872658258648393" fill="#ff4b07" stroke="none" /><path d="M 86.79598089348748 116.32954008644616 l -5.451535910833646 6.741967992514611 a29.6702581391329,29.6702581391329 0 0,0 -0.39437406382962226,-0.3245430056822043 l 5.5667801032079565 -6.6471298679752255" fill="#ff1001" stroke="none" /><path d="M 86.24171649860922 115.8653595955263 l -8.451112641073843 9.745397455967582 a33.899382793254006,33.899382793254006 0 0,0 -0.43755652085039703,-0.38609275582614405 l 8.617611514830827 -9.59848155836915" fill="#ff5307" stroke="none" /><path d="M 85.97065885151581 115.62618273729859 l -8.626098994843172 9.607935096653547 a33.91208738703163,33.91208738703163 0 0,0 -0.4310072096246733,-0.39371486690983115 l 8.7902057539347 -9.45802746315714" fill="#ff5407" stroke="none" /><path d="M 85.44109423537348 115.13401014063109 l -8.947349891265006 9.300787172836868 a33.90580149045873,33.90580149045873 0 0,0 -0.4171221633236609,-0.408241829390013 l 9.10612200696446 -9.145395240524286" fill="#ff5407" stroke="none" /><path d="M 82.05923443525364 110.91462005526583 l -7.40014695917373 4.502025965448476 a29.662009744334192,29.662009744334192 0 0,0 -0.26161768904171867,-0.43848629505527975 l 7.47654552391368 -4.373977576507086" fill="#ff1001" stroke="none" /><line stroke="#e1ed5e" stroke-width="0.3" x1="26.63291911575756" x2="22.317208475507996" y1="142.92168965132927" y2="145.44649492493687" /><path d="M 25.769776987707644 143.4266507060508 a86.0,86.0 0 0,1 -11.730757126820373,-40.83630448921669" fill="none" id="id21" stroke="none" /><text fill="#e1ed5e" style="font-size:6.75px; font-family:Arial;" text-anchor="middle"><textPath startOffset="21.46611528233685" xlink:href="#id21">September</textPath></text><path d="M 81.69416730710424 110.29060199501025 l -6.684434388531617 3.7576468117090243 a28.668218349534072,28.668218349534072 0 0,0 -0.23811493234065004,-0.43224776735576215 l 6.748125730323784 -3.6420285259554395" fill="#ff0000" stroke="none" /><path d="M 81.51974371655577 109.97397251340807 l -10.236840807392396 5.52492169324162 a32.63261232193122,32.63261232193122 0 0,0 -0.2625332381838074,-0.49661394840974676 l 10.330426553801088 -5.347892729745746" fill="#ff4006" stroke="none" /><path d="M 81.18737489456691 109.33194174019688 l -13.542024402124664 6.7174773353908614 a36.11657787527421,36.11657787527421 0 0,0 -0.27147067618252035,-0.5593099998942392 l 13.655648334921903 -6.483378379531337" fill="#ff750a" stroke="none" /><path d="M 80.0844068197444 106.66101706037122 l -14.262990702974033 4.770434078690438 a36.03961253132057,36.03961253132057 0 0,0 -0.19170971381525687,-0.5900218301257978 l 14.34299266780554 -4.524213348586836" fill="#ff740a" stroke="none" /><path d="M 79.97269907076064 106.31721596034903 l -12.332995711520207 3.890199564235071 a33.93199272617915,33.93199272617915 0 0,0 -0.17090935171173702,-0.5585416501428686 l 12.398131835738074 -3.6773309415401543" fill="#ff5407" stroke="none" /><path d="M 79.76711848015287 105.62410040840567 l -12.378886426161134 3.440938461320378 a33.84822503875108,33.84822503875108 0 0,0 -0.15120795730008285,-0.5627010598544165 l 12.436282459802992 -3.2273464682904227" fill="#ff5307" stroke="none" /><path d="M 79.50377843672027 104.57218783832718 l -14.238576578548912 3.1762657554485485 a35.588547807524805,35.588547807524805 0 0,0 -0.128230556202741,-0.5990504684289143 l 14.291141173476094 -2.93070146760347" fill="#ff6d0a" stroke="none" /><path d="M 79.35854240842038 103.8639653848113 l -14.633634964187808 2.7393345990572002 a35.88782140914821,35.88782140914821 0 0,0 -0.10843856881458494,-0.6081810817405231 l 14.678619975341581 -2.487034766583464" fill="#ff720a" stroke="none" /><path d="M 79.23777060512086 103.15116336523772 l -14.831951993698159 2.251102368083546 a36.00180861812862,36.00180861812862 0 0,0 -0.08771746205073024,-0.6134957252805887 l 14.868503506765489 -1.9954611708225565" fill="#ff740a" stroke="none" /><path d="M 79.1416061653843 102.43462659150553 l -14.94088022818412 1.7439245127143557 a36.04231281083428,36.04231281083428 0 0,0 -0.06662283961408287,-0.6168447519996705 l 14.968685369299255 -1.4864834388299033" fill="#ff740a" stroke="none" /><path d="M 79.07016306316243 101.71520430193888 l -14.957936290119438 1.2258058555527898 a36.00807975907576,36.00807975907576 0 0,0 -0.04530749443447011,-0.6181847645863839 l 14.976820343218243 -0.9681479544696452" fill="#ff740a" stroke="none" /><line stroke="#e1ed5e" stroke-width="0.3" x1="15.007084014347285" x2="10.007500721073583" y1="101.09737516637583" y2="101.16192664675087" /><path d="M 14.007167355692545 101.11028546245083 a86.0,86.0 0 0,1 10.666146001902534,-42.60595125391555" fill="none" id="id22" stroke="none" /><text fill="#e1ed5e" style="font-size:6.75px; font-family:Arial;" text-anchor="middle"><textPath startOffset="22.20632615414155" xlink:href="#id22">October</textPath></text><path d="M 79.21141760316559 97.0276538004421 l -10.82674821418372 -1.5480056933992594 a31.93685505619083,31.93685505619083 0 0,0 0.0824945794705512,-0.543536206880367 l 10.798497741273867 1.7341410126717185" fill="#ff3505" stroke="none" /><path d="M 79.46518482838121 95.60439243477599 l -14.72267810157258 -3.151482723500387 a36.05619785467255,36.05619785467255 0 0,0 0.13513453116799143,-0.6057816060073524 l 14.66624918340255 3.4044424990576987" fill="#ff750a" stroke="none" /><path d="M 79.62865764111835 94.90015583598534 l -14.622336113502262 -3.6606147095747428 a36.07357998181545,36.07357998181545 0 0,0 0.15598158975803306,-0.6010606942326752 l 14.557158191873922 3.9117718293562818" fill="#ff750a" stroke="none" /><path d="M 79.91906864156998 93.8553929516997 l -22.12200484185738 -6.769159480082888 a44.1344897996467,44.1344897996467 0 0,0 0.22854208297141534,-0.7245408577753956 l 22.002207275117758 7.148950504284699" fill="#ffea16" stroke="none" /><path d="M 80.65960295795068 91.81776055985345 l -12.07590829273607 -5.108890623785663 a34.11214416105836,34.11214416105836 0 0,0 0.23343962014904,-0.5388108284861095 l 11.98617796274435 5.3160005968583715" fill="#ff5708" stroke="none" /><path d="M 80.95270993114464 91.15688171328213 l -13.429702881431357 -6.235031372266501 a35.80650315559596,35.80650315559596 0 0,0 0.2643573772121248,-0.5568040559452895 l 13.32038731037748 6.4652778438523235" fill="#ff710a" stroke="none" /><path d="M 81.26839172434947 90.50648371742162 l -13.194463024385984 -6.687191388937826 a35.79230824361679,35.79230824361679 0 0,0 0.2832544759768856,-0.5471574894984405 l 13.077399115248985 6.913321600696602" fill="#ff710a" stroke="none" /><path d="M 81.6062741919709 89.86733742301443 l -12.932407912008077 -7.1241534775469875 a35.76484802408118,35.76484802408118 0 0,0 0.3016890256096901,-0.5366711131935389 l 12.807861245105958 7.345708100675311" fill="#ff700a" stroke="none" /><line stroke="#e1ed5e" stroke-width="0.3" x1="26.266209847984243" x2="21.928928074336255" y1="57.711370442889674" y2="55.22380399835377" /><path d="M 25.398753493254645 57.213857153982495 a86.0,86.0 0 0,1 29.58750427330803,-30.492523968695096" fill="none" id="id23" stroke="none" /><text fill="#e1ed5e" style="font-size:6.75px; font-family:Arial;" text-anchor="middle"><textPath startOffset="21.46611528233685" xlink:href="#id23">November</textPath></text><path d="M 81.96595687620814 89.24020034530311 l -27.044082634317693 -16.135533723240982 a52.49186965020735,52.49186965020735 0 0,0 0.46963776312824596,-0.771960999647501 l 26.76232907290323 16.598662496095557" fill="#a6ff21" stroke="none" /><path d="M 82.7489923806493 88.02491185347247 l -12.140746344828566 -8.427711056186176 a35.77917573669218,35.77917573669218 0 0,0 0.3555553547650922,-0.5029078341639749 l 11.993878370259596 8.635445390681937" fill="#ff700a" stroke="none" /><path d="M 82.95767976084542 87.72973835380427 l -12.378148631823768 -8.912115268144488 a36.252683767265836,36.252683767265836 0 0,0 0.3689787579897529,-0.5032866112313589 l 12.222907261320382 9.123864323047348" fill="#ff780b" stroke="none" /><path d="M 83.6137871275137 86.86637796730984 l -11.891669491970768 -9.531225650525755 a36.2399496622367,36.2399496622367 0 0,0 0.39432776880460546,-0.48339921871422536 l 11.72584323108977 9.734509038848062" fill="#ff770b" stroke="none" /><path d="M 83.84228863543731 86.58626213691792 l -11.732303200318276 -9.739871947732842 a36.24834561329299,36.24834561329299 0 0,0 0.4026835385824673,-0.4766502967553122 l 11.562909048248684 9.94038119411727" fill="#ff770b" stroke="none" /><path d="M 84.31358615837235 86.03803664274999 l -11.389945270152566 -10.137817356376237 a36.24815379015814,36.24815379015814 0 0,0 0.41884976348140407,-0.46250437022368346 l 11.213751866055118 10.332374513869476" fill="#ff770b" stroke="none" /><path d="M 84.5562425177563 85.77008943001954 l -11.175771481770944 -10.297379308046109 a36.1965091000052,36.1965091000052 0 0,0 0.42614094667214514,-0.45457745009158745 l 10.996863213128343 10.488226175015747" fill="#ff770a" stroke="none" /><path d="M 85.05521093208273 85.24692304244772 l -15.816545503162764 -15.613650480468559 a43.224967783550426,43.224967783550426 0 0,0 0.5272709183365172,-0.5250066494470341 l 15.545438784658934 15.883592980565703" fill="#ffdd14" stroke="none" /><path d="M 85.57189188830299 84.74124197986013 l -10.45337461724955 -11.055192582676192 a36.2148060759451,36.2148060759451 0 0,0 0.4566378637527812,-0.4243951281660038 l 10.261528869701912 11.233492296916843" fill="#ff770b" stroke="none" /><path d="M 86.65592168130627 83.78471172551755 l -9.66167842521146 -11.740556158208141 a36.20489029543573,36.20489029543573 0 0,0 0.4846224579710516,-0.3918643244463551 l 9.458152568675906 11.905126579918631" fill="#ff770a" stroke="none" /><path d="M 86.93701828274178 83.55741782278169 l -13.942217517552697 -17.54929021772596 a43.413456146982895,43.413456146982895 0 0,0 0.5891153176144782,-0.45981384979042667 l 13.638069644778794 17.78668245673961" fill="#ffe015" stroke="none" /><path d="M 87.51073957382395 83.11751280151077 l -9.035128065524447 -12.213327987238594 a36.19206765665204,36.19206765665204 0 0,0 0.5040256998585096,-0.3661961061548739 l 8.823557049312155 12.367043328210137" fill="#ff770a" stroke="none" /><path d="M 88.09926311788651 82.69761687909137 l -8.674720757755034 -12.612104906139297 a36.30738287195068,36.30738287195068 0 0,0 0.5179772127057541,-0.3497405262193853 l 8.45633885064274 12.759557344657347" fill="#ff780b" stroke="none" /><path d="M 89.00827224532344 82.1063720568725 l -8.016424995022808 -13.05007997799949 a36.31560175549787,36.31560175549787 0 0,0 0.5354613281730988,-0.32260945890660225 l 7.790601600632059 13.18613604636471" fill="#ff780b" stroke="none" /><line stroke="#e1ed5e" stroke-width="0.3" x1="56.762969772571076" x2="54.21961505331055" y1="26.818313649435495" y2="22.513508569990535" /><path d="M 56.25429882871897 25.957352633546506 a86.0,86.0 0 0,1 42.265352541879196,-11.944610805530505" fill="none" id="id24" stroke="none" /><text fill="#e1ed5e" style="font-size:6.75px; font-family:Arial;" text-anchor="middle"><textPath startOffset="22.20632615414155" xlink:href="#id24">December</textPath></text><path d="M 89.94658935756843 81.56283822128135 l -7.289486689242797 -13.368343356646132 a36.22659582092572,36.22659582092572 0 0,0 0.5500490249961505,-0.2938171397488795 l 7.058292617718341 13.491839222896761" fill="#ff770b" stroke="none" /><path d="M 93.94186890950719 79.89281104454417 l -4.280461622767596 -14.20703008567016 a35.83785886033168,35.83785886033168 0 0,0 0.5921946476372596,-0.17287785669178166 l 4.035276757406915 14.27860627128064" fill="#ff710a" stroke="none" /><path d="M 94.28887869178378 79.79150937346287 l -4.140611705347216 -14.651328227831625 a36.225179280852956,36.225179280852956 0 0,0 0.6015141180229762,-0.16441653078312798 l 3.887799698100517 14.720431299441048" fill="#ff770b" stroke="none" /><path d="M 95.692805502759 79.44645832069477 l -3.1245474638375246 -14.910057246796903 a36.23392936692744,36.23392936692744 0 0,0 0.6115486516492505,-0.12267090636982476 l 2.8674324027211373 14.961632109243938" fill="#ff770b" stroke="none" /><path d="M 97.11714578562143 79.19881850522333 l -2.0891682020569005 -15.074354688958678 a36.21843595988156,36.21843595988156 0 0,0 0.6182750403856623,-0.08026984485453419 l 1.8293784331633804 15.108082856977349" fill="#ff770b" stroke="none" /><path d="M 98.91598698831166 79.02799685794201 l -0.783195680135624 -15.152200285002596 a36.17242791876817,36.17242791876817 0 0,0 0.6220954265523565,-0.026788737679839015 l 0.5222594211939434 15.163436749206628" fill="#ff760a" stroke="none" /></svg>