<?xml version="1.0" encoding="utf-8" ?>
<svg baseProfile="full" height="200mm" version="1.1" viewBox="0,0,200,200" width="200mm" xmlns="http://www.w3.org/2000/svg" xmlns:ev="http://www.w3.org/2001/xml-events" xmlns:xlink="http://www.w3.org/1999/xlink"><defs /><rect fill="#1a1a1a" height="200" width="200" x="0" y="0" /><rect fill="#1a1a1a" height="200" width="180" x="10" y="0" /><text alignment-baseline="middle" fill="#e1ed5e" style="dominant-baseline: central; font-size:9.0px; font-family:Arial;" text-anchor="middle" x="100.0" y="100.0">2024</text><line stroke="#e1ed5e" stroke-width="0.3" x1="100.0" x2="100.0" y1="15.0" y2="10.0" /><path d="M 100.0 14.0 a86.0,86.0 0 0,1 42.35913384403234,11.155469271406648" fill="none" id="id1" stroke="none" /><text fill="#e1ed5e" style="font-size:6.75px; font-family:Arial;" text-anchor="middle"><textPath startOffset="22.145653131862478" xlink:href="#id1">January</textPath></text><line stroke="#e1ed5e" stroke-width="0.3" x1="143.13028292997686" x2="145.6673583964461" y1="26.7553504044142" y2="22.446841604673864" /><path d="M 143.63769802327073 25.89364864446614 a86.0,86.0 0 0,1 29.32050498858742,28.57503671076993" fill="none" id="id2" stroke="none" /><text fill="#e1ed5e" style="font-size:6.75px; font-family:Arial;" text-anchor="middle"><textPath startOffset="20.669276256404974" xlink:href="#id2">February</textPath></text><line stroke="#e1ed5e" stroke-width="0.3" x1="172.87174338648825" x2="177.1583165268699" y1="56.24261187166439" y2="53.66864786411523" /><path d="M 173.72905801456457 55.72781907015455 a86.0,86.0 0 0,1 12.242430191666344,42.057860355516425" fill="none" id="id3" stroke="none" /><text fill="#e1ed5e" style="font-size:6.75px; font-family:Arial;" text-anchor="middle"><textPath startOffset="22.145653131862474" xlink:href="#id3">March</textPath></text><path d="M 120.51834098615036 95.52812308129327 l 8.61373713467026 -1.8773239172864533 a29.815940818518076,29.815940818518076 0 0,0 0.10469979666108216,0.5010264287763344 l -8.64469464215571 1.7291810372247145" fill="#ff0a01" stroke="none" /><path d="M 120.65975698304385 96.23510406497455 l 8.294194161184002 -1.5114784703122282 a29.430790232809507,29.430790232809507 0 0,0 0.08630955180168291,0.49781055892126236 l -8.31891853047792 1.368874878470373" fill="#ff0400" stroke="none" /><path d="M 120.77682067341334 96.94652285012252 l 62.330462020240034 -9.160431449632455 a84.0,84.0 0 0,0 0.19742193377914985,1.4284467671996575 l -62.478528470574396 8.089096374232712" fill="#4dd2ff" stroke="none" /><path d="M 120.96210409425399 98.7389718711861 l 8.509207441240926 -0.5118927894389568 a29.524590635681548,29.524590635681548 0 0,0 0.0260918797211242,0.5061754960881238 l -8.516740910418623 0.36574549997410233" fill="#ff0500" stroke="none" /><path d="M 120.98066250479742 99.09900007780936 l 8.412763104915719 -0.3612802456168461 a29.420516995725627,29.420516995725627 0 0,0 0.0173375288826978,0.5047632365164182 l -8.417725320795265 0.21681074453630794" fill="#ff0400" stroke="none" /><path d="M 120.99303781780057 99.45929381324524 l 16.741003557210522 -0.4311888672058598 a37.74655558441012,37.74655558441012 0 0,0 0.011123673388041754,0.6478982081878899 l -16.74593866219723 0.14374374304890356" fill="#ff870c" stroke="none" /><line stroke="#e1ed5e" stroke-width="0.3" x1="184.99686870605535" x2="189.99668451229388" y1="99.2704041080226" y2="99.22748670261217" /><path d="M 185.99683186730306 99.26182062694052 a86.0,86.0 0 0,1 -10.086455211305974,41.156179273409016" fill="none" id="id4" stroke="none" /><text fill="#e1ed5e" style="font-size:6.75px; font-family:Arial;" text-anchor="middle"><textPath startOffset="21.40746469413373" xlink:href="#id4">April</textPath></text><path d="M 120.99922638620191 100.18025310272382 l 8.411820486551095 0.07220536196766618 a29.412130378938357,29.412130378938357 0 0,0 -0.008667570508521159,0.5048425287146717 l -8.409341484443907 -0.21659480665140896" fill="#ff0400" stroke="none" /><line stroke="#e1ed5e" stroke-width="0.3" x1="174.33088141563837" x2="178.70328620479359" y1="141.23008692659167" y2="143.65538615756765" /><path d="M 175.20536237346943 141.71514677278685 a86.0,86.0 0 0,1 -30.301960400862466,31.631185727798858" fill="none" id="id5" stroke="none" /><text fill="#e1ed5e" style="font-size:6.75px; font-family:Arial;" text-anchor="middle"><textPath startOffset="22.145653131862474" xlink:href="#id5">May</textPath></text><path d="M 117.423217284605 111.72311816256416 l 6.913743736412184 4.651875336437632 a29.333054457912503,29.333054457912503 0 0,0 -0.28468464519417563,0.41536340524199894 l -6.832869354402688 -4.769873476749675" fill="#ff0200" stroke="none" /><path d="M 117.01052211995028 112.31430620078461 l 6.890982484965591 4.988539901699262 a29.507124658716847,29.507124658716847 0 0,0 -0.3005483034470362,0.4077514955988743 l -6.804332161934727 -5.106097706567014" fill="#ff0500" stroke="none" /><path d="M 116.79662413953412 112.60449989151573 l 6.72631251065386 5.047550305735965 a29.409580493693717,29.409580493693717 0 0,0 -0.3064870732325852,0.40120141722868025 l -6.63867346006697 -5.162272636205523" fill="#ff0400" stroke="none" /><path d="M 116.1254893667686 113.45245675266167 l 12.92796204311585 10.784965735270468 a37.835904742519844,37.835904742519844 0 0,0 -0.4203486795741347,0.49516968758660984 l -12.7409188000346 -11.005302205306634" fill="#ff890c" stroke="none" /><path d="M 115.6541949942343 113.99807769240083 l 6.285531151067586 5.6205607137930835 a29.43199884893702,29.43199884893702 0 0,0 -0.34001288521767936,0.37373372234482666 l -6.188120565008027 -5.727632011695582" fill="#ff0400" stroke="none" /><path d="M 112.7482090630111 116.68781488649013 l 5.374215171965773 7.035020174727849 a29.852892045733697,29.852892045733697 0 0,0 -0.40990439017889857,0.3075998961827719 l -5.252657792876108 -7.1262390981746355" fill="#ff0b01" stroke="none" /><path d="M 111.5731344415666 117.5232005979908 l 4.6580897482343815 7.052941575498223 a29.452324234788772,29.452324234788772 0 0,0 -0.42427386878327034,0.27500919581385763 l -4.536330247194101 -7.131864613015976" fill="#ff0400" stroke="none" /><path d="M 111.27062007382361 117.71928675628689 l 4.423495105569123 6.954469028962636 a29.242083985485376,29.242083985485376 0 0,0 -0.4258703919859641,0.26577462183724787 l -4.303460584793444 -7.029379447641432" fill="#ff0100" stroke="none" /><line stroke="#e1ed5e" stroke-width="0.3" x1="143.1302829299769" x2="145.66735839644613" y1="173.24464959558577" y2="177.55315839532614" /><path d="M 143.63769802327073 174.10635135553383 a86.0,86.0 0 0,1 -40.68552437913181,11.842963189579606" fill="none" id="id6" stroke="none" /><text fill="#e1ed5e" style="font-size:6.75px; font-family:Arial;" text-anchor="middle"><textPath startOffset="21.407464694133747" xlink:href="#id6">June</textPath></text><path d="M 110.65571695917076 118.09573695890943 l 4.836995623698989 8.21427603728924 a30.532620703692526,30.532620703692526 0 0,0 -0.45392924569782594,0.2620761721966846 l -4.695273910140765 -8.296099106762096" fill="#ff1602" stroke="none" /><path d="M 110.34350942703117 118.27599006163325 l 8.265340795207718 14.604065215473517 a37.78078005572829,37.78078005572829 0 0,0 -0.5671719280268885,0.3146007076669922 l -8.013424679024736 -14.743798838573651" fill="#ff880c" stroke="none" /><path d="M 109.71004243097381 118.62028667847754 l 3.8877721282248277 7.455315677841069 a29.40812131080806,29.40812131080806 0 0,0 -0.44962605778310244,0.22958226881655186 l -3.759218848728143 -7.520955898330457" fill="#ff0300" stroke="none" /><path d="M 109.06512990194946 118.94263497670748 l 3.67123222667094 7.671463369719327 a29.50466320879861,29.50466320879861 0 0,0 -0.4587431205282327,0.21471494370527794 l -3.539000392271201 -7.733354544995139" fill="#ff0500" stroke="none" /><path d="M 108.73861861582097 119.09545874513695 l 3.530542497262733 7.714872517994612 a29.484337822946863,29.484337822946863 0 0,0 -0.4620428763432722,0.20666590164021947 l -3.3975862180638337 -7.774342170544682" fill="#ff0500" stroke="none" /><path d="M 107.06938296918513 119.77432235084164 l 2.841839656542369 7.949131300825746 a29.44184464860995,29.44184464860995 0 0,0 -0.4773703887237548,0.16605420134540094 l -2.7049634957735926 -7.9967439347397375" fill="#ff0400" stroke="none" /><path d="M 106.72888874123015 119.89276391827305 l 2.703966987197191 7.993797934201576 a29.43873467296476,29.43873467296476 0 0,0 -0.48009986942436644,0.1578183630748953 l -2.5663443801250905 -8.03903721867849" fill="#ff0400" stroke="none" /><path d="M 105.3480935250658 120.30758222061773 l 2.155903633522951 8.186317253484669 a29.465442141538635,29.465442141538635 0 0,0 -0.49024140557271007,0.1246174482224771 l -2.0150569347248437 -8.222119933542416" fill="#ff0400" stroke="none" /><path d="M 104.29559338865022 120.5559693870025 l 1.8612358706054646 8.90668741581684 a30.099081255220142,30.099081255220142 0 0,0 -0.5066729050480745,0.10134877121191299 l -1.7080664800264316 -8.937325583691615" fill="#ff0f01" stroke="none" /><path d="M 103.2317021107853 120.74984581791261 l 1.3023752474960362 8.362183349888543 a29.462995430841467,29.462995430841467 0 0,0 -0.5004147992274584,0.07354374275641148 l -1.1586353426608924 -8.383308165943838" fill="#ff0400" stroke="none" /><path d="M 102.875027216393 120.80226474461374 l 1.1298239284707716 8.174843125254048 a29.252548832443132,29.252548832443132 0 0,0 -0.4980207130391202,0.06447875202494288 l -0.9893253935408759 -8.193033473479385" fill="#ff0100" stroke="none" /><path d="M 102.51750503828377 120.84855314841334 l 1.016540040536283 8.418409790774009 a29.47956231532107,29.47956231532107 0 0,0 -0.5029270863857884,0.05635402903504408 l -0.8718770525496954 -8.434619580316024" fill="#ff0500" stroke="none" /><path d="M 101.44090949804482 120.95050786540614 l 1.161701109933254 16.890879180082056 a37.9307811085298,37.9307811085298 0 0,0 -0.649981229044364,0.03910125669353413 l -0.8715755287564247 -16.90833241460028" fill="#ff8a0c" stroke="none" /><path d="M 101.08105385017728 120.97215588758144 l 0.5539675421019414 10.746822323159053 a31.761090561985444,31.761090561985444 0 0,0 -0.5447393636024418,0.02339345214230939 l -0.36940241789867 -10.754748343727194" fill="#ff2a04" stroke="none" /><path d="M 100.72087961077811 120.9876233191556 l 0.4357558046181221 12.686554800168599 a33.69403623040912,33.69403623040912 0 0,0 -0.5782324786979728,0.014893217519451347 l -0.21791001184940542 -12.692165735038095" fill="#ff4906" stroke="none" /><line stroke="#e1ed5e" stroke-width="0.3" x1="101.45913802915013" x2="101.54496967792366" y1="184.9874750549273" y2="189.98673829345242" /><path d="M 101.47630435890484 185.9873277026323 a86.0,86.0 0 0,1 -42.54439059252881,-10.42667462771756" fill="none" id="id7" stroke="none" /><text fill="#e1ed5e" style="font-size:6.75px; font-family:Arial;" text-anchor="middle"><textPath startOffset="22.145653131862474" xlink:href="#id7">July</textPath></text><path d="M 100.0 121.0 l 1.03875735060916e-15 8.482097461344637 a29.482097461344637,29.482097461344637 0 0,0 -0.5060994068818594,-0.004344254721549472 l 0.1456064820330062 -8.480847604817523" fill="#ff0500" stroke="none" /><path d="M 99.27912038922189 120.98762331915562 l -0.2905785834810974 8.459878409007025 a29.46486731191701,29.46486731191701 0 0,0 -0.5053564844317581,-0.02170218185662458 l 0.43576082851369413 -8.453643658724573" fill="#ff0400" stroke="none" /><path d="M 98.19965949673042 120.92268563240118 l -1.450283911706542 16.854497417159617 a37.916778848515904,37.916778848515904 0 0,0 -0.648016594465056,-0.06136784523615418 l 1.7394000695566134 -16.82711781641828" fill="#ff8a0c" stroke="none" /><path d="M 97.12497278360702 120.80226474461374 l -1.1607137679736634 8.39834661614068 a29.478176828540747,29.478176828540747 0 0,0 -0.5006726479617981,-0.07358163764085049 l 1.3047115215431464 -8.377183905200948" fill="#ff0500" stroke="none" /><path d="M 96.76829788921471 120.74984581791261 l -1.3085153386082076 8.401607139432887 a29.502894502270543,29.502894502270543 0 0,0 -0.4997544428337963,-0.08223440338943054 l 1.4525472844950675 -8.37790673754779" fill="#ff0500" stroke="none" /><path d="M 94.30408787586889 120.21278271476187 l -2.3079284073901496 8.190023722832574 a29.508996539792385,29.508996539792385 0 0,0 -0.48639255699594974,-0.14158178458044385 l 2.448180976767706 -8.149198243949614" fill="#ff0500" stroke="none" /><path d="M 93.61358852112213 120.00534299687104 l -2.57603088054681 8.069380043286142 a29.47058612969111,29.47058612969111 0 0,0 -0.48061931702919014,-0.15798911582014233 l 2.7141729352237434 -8.023970006063978" fill="#ff0500" stroke="none" /><path d="M 92.93061703081489 119.77432235084164 l -2.847054478233313 7.963718085212516 a29.457335569951642,29.457335569951642 0 0,0 -0.4746991390588874,-0.17431609913062557 l 2.983342768946319 -7.9136711370731705" fill="#ff0400" stroke="none" /><path d="M 92.25597844496254 119.51999308798841 l -3.1199965335973454 7.864429397249187 a29.460710851576046,29.460710851576046 0 0,0 -0.4684891885258185,-0.19053047447032315 l 3.2545401833136047 -7.809711666199572" fill="#ff0400" stroke="none" /><path d="M 91.26138138417905 119.09545874513695 l -3.5405950642814954 7.736839191130124 a29.5084954062761,29.5084954062761 0 0,0 -0.45880270413430674,-0.21474283184147233 l 3.672886482287292 -7.674920127718124" fill="#ff0500" stroke="none" /><line stroke="#e1ed5e" stroke-width="0.3" x1="58.13341422392154" x2="55.67067388415222" y1="173.97424548756322" y2="178.32567169271397" /><path d="M 57.64086615596768 174.84453072859336 a86.0,86.0 0 0,1 -31.369924170532247,-30.572349798747897" fill="none" id="id8" stroke="none" /><text fill="#e1ed5e" style="font-size:6.75px; font-family:Arial;" text-anchor="middle"><textPath startOffset="22.145653131862474" xlink:href="#id8">August</textPath></text><path d="M 89.65649057296885 118.27599006163327 l -4.1873655413977655 7.398673686033148 a29.501435319384882,29.501435319384882 0 0,0 -0.4385985864591045,-0.25322501195835523 l 4.31375659571727 -7.325701776798621" fill="#ff0500" stroke="none" /><path d="M 89.34428304082925 118.09573695890944 l -4.413562559360619 7.495194122732805 a29.698130224527468,29.698130224527468 0 0,0 -0.4370818687568218,-0.26245510380635095 l 4.5415771846748685 -7.418325018390536" fill="#ff0801" stroke="none" /><path d="M 88.72937992617639 117.7192867562869 l -9.163290907848479 14.406215289303066 a38.073515725345146,38.073515725345146 0 0,0 -0.5484659779716946,-0.3555090205432992 l 9.409242518077184 -14.246792427055873" fill="#ff8c0c" stroke="none" /><path d="M 87.83215693770417 117.11559508785305 l -5.0123208910953485 7.050457043467826 a29.65056675814342,29.65056675814342 0 0,0 -0.4123108831691748,-0.2984812829058547 l 5.132612784638477 -6.963374989188907" fill="#ff0701" stroke="none" /><path d="M 87.2517909369889 116.68781488649013 l -7.796944853241711 10.20645109818562 a33.84383093411568,33.84383093411568 0 0,0 -0.4586484628236168,-0.35664781880206997 l 7.971003260700556 -10.071102227762756" fill="#ff4b07" stroke="none" /><path d="M 86.68645165197938 116.24036423190432 l -10.80895441049736 13.185166869403707 a38.04940235967911,38.04940235967911 0 0,0 -0.5015738639504866,-0.41843075640013455 l 11.03370260860974 -12.997673929091702" fill="#ff8c0c" stroke="none" /><path d="M 85.86807049272751 115.53346607816431 l -5.515823698508348 6.06285647475259 a29.19649557472434,29.19649557472434 0 0,0 -0.36783445290645533,-0.34046207816069385 l 5.619087922728771 -5.967276650459519" fill="#ff0000" stroke="none" /><path d="M 82.576782715395 111.72311816256416 l -7.17839927272571 4.829947392470689 a29.652040680250145,29.652040680250145 0 0,0 -0.2805302771092445,-0.42475859452037906 l 7.260253988755681 -4.706008919611248" fill="#ff0801" stroke="none" /><path d="M 82.18462484594161 111.11811171558189 l -10.91189696280251 6.809830745198773 a33.86247604876577,33.86247604876577 0 0,0 -0.30352394263044224,-0.4957835495769828 l 11.027188869888358 -6.621510079497233" fill="#ff4b07" stroke="none" /><line stroke="#e1ed5e" stroke-width="0.3" x1="26.387840678322732" x2="22.057713659400548" y1="142.50000000000003" y2="145.00000000000006" /><path d="M 25.521815274538298 143.00000000000003 a86.0,86.0 0 0,1 -11.493303480769221,-40.785679425670985" fill="none" id="id9" stroke="none" /><text fill="#e1ed5e" style="font-size:6.75px; font-family:Arial;" text-anchor="middle"><textPath startOffset="21.40746469413373" xlink:href="#id9">September</textPath></text><path d="M 81.63589988554817 110.18625677009913 l -7.559174894630808 4.19294688914273 a29.644184675421297,29.644184675421297 0 0,0 -0.24301829755884555,-0.44712629578697216 l 7.630038541804983 -4.0625657598811715" fill="#ff0701" stroke="none" /><path d="M 81.1358732173502 109.22738970284198 l -11.538553356015912 5.644084650709614 a33.84499533258,33.84499533258 0 0,0 -0.25080872799997217,-0.5240937785628523 l 11.633741341975798 -5.445178370081656" fill="#ff4b07" stroke="none" /><path d="M 80.83023694016515 108.57439118712176 l -7.909362138293306 3.537757081433691 a29.66451006127305,29.66451006127305 0 0,0 -0.2039309599721231,-0.4666339454644967 l 7.968926980282397 -3.401461066193345" fill="#ff0801" stroke="none" /><path d="M 80.68587082218212 108.24405325689762 l -15.682161389446648 6.693782178196467 a38.05100893477544,38.05100893477544 0 0,0 -0.25127102516974414,-0.6029589884025051 l 15.794758259152877 -6.423590680352681" fill="#ff8c0c" stroke="none" /><path d="M 80.05021161711548 106.5578916946017 l -9.342194781804903 3.070964984345933 a30.833993556854793,30.833993556854793 0 0,0 -0.16097588796800325,-0.5042546763040021 l 9.39353538555016 -2.910141274350539" fill="#ff1b02" stroke="none" /><path d="M 79.94057633289273 106.21446072829308 l -8.044043314608253 2.492065181179275 a29.421224478336853,29.421224478336853 0 0,0 -0.14531798442344712,-0.48371630803265947 l 8.08563761903533 -2.353611269555892" fill="#ff0400" stroke="none" /><path d="M 79.56144815229197 104.8234425847677 l -8.216533964091836 1.9390796430636088 a29.44224260757877,29.44224260757877 0 0,0 -0.11186529387947025,-0.49289912536486713 l 8.248610119528973 -1.7977461837597153" fill="#ff0400" stroke="none" /><path d="M 79.2786578344484 103.40968896794605 l -16.659419822927017 2.7413011922099018 a37.88345346968283,37.88345346968283 0 0,0 -0.1000817843403512,-0.6425968492929066 l 16.704023099405635 -2.454916160985545" fill="#ff890c" stroke="none" /><path d="M 79.17382384314188 102.69636545807758 l -8.611296488224948 1.1149047345625365 a29.683169915144198,29.683169915144198 0 0,0 -0.061087841758691336,-0.5058949619803446 l 8.6291664162433 -0.9669160956587928" fill="#ff0801" stroke="none" /><line stroke="#e1ed5e" stroke-width="0.3" x1="15.003131293944662" x2="10.003315487706104" y1="100.72959589197737" y2="100.7725132973878" /><path d="M 14.003168132696942 100.73817937305945 a86.0,86.0 0 0,1 10.791469493833604,-42.45332614584628" fill="none" id="id10" stroke="none" /><text fill="#e1ed5e" style="font-size:6.75px; font-family:Arial;" text-anchor="middle"><textPath startOffset="22.145653131862435" xlink:href="#id10">October</textPath></text><path d="M 79.48165901384962 95.52812308129327 l -8.490664819793025 -1.8505008790786914 a29.689979435277273,29.689979435277273 0 0,0 0.11280656569102449,-0.49704654264287634 l 8.457647392544338 1.995981755660576" fill="#ff0801" stroke="none" /><path d="M 79.64726062577567 94.8264132398404 l -8.395438924067397 -2.1340877443893946 a29.662431831102566,29.662431831102566 0 0,0 0.12968206033371238,-0.4924239059064589 l 8.35756738292896 2.2778921546686384" fill="#ff0801" stroke="none" /><path d="M 80.05021161711548 93.44210830539832 l -16.183066369739844 -5.319695352275208 a38.03498740147533,38.03498740147533 0 0,0 0.20921883500865865,-0.6185183099523897 l 16.08936211315882 5.5967153367017595" fill="#ff8c0c" stroke="none" /><path d="M 80.41425534168474 92.42381321644754 l -8.10635684304404 -3.1357129712684153 a29.691703924142143,29.691703924142143 0 0,0 0.1879644981994653,-0.4737933229607383 l 8.051333669878442 3.2744073114427366" fill="#ff0801" stroke="none" /><path d="M 80.5471966667186 92.08871423366112 l -8.022033701495316 -3.2624912693766026 a29.6600735557318,29.6600735557318 0 0,0 0.1958612214917635,-0.46999563080611434 l 7.964846635467074 3.3997194096239807" fill="#ff0801" stroke="none" /><path d="M 80.9802524753101 91.09779779509293 l -15.482851684014518 -7.246756363130557 a38.094858117450535,38.094858117450535 0 0,0 0.28230238514998995,-0.5899034093047258 l 15.356170040904624 7.51147227450037" fill="#ff8d0d" stroke="none" /><path d="M 81.29705330413844 90.45014215332179 l -7.711898718159091 -3.937750434945924 a29.659056549478162,29.659056549478162 0 0,0 0.2354250194578081,-0.4514585167627228 l 7.643165629726343 4.069555194813133" fill="#ff0801" stroke="none" /><path d="M 81.63589988554816 89.8137432299009 l -7.577773964280761 -4.203263479553281 a29.665453371421354,29.665453371421354 0 0,0 0.25083784429898925,-0.4432064360582916 l 7.504502754960402 4.332726685710678" fill="#ff0801" stroke="none" /><line stroke="#e1ed5e" stroke-width="0.3" x1="26.387840678322718" x2="22.05771365940052" y1="57.49999999999999" y2="54.99999999999999" /><path d="M 25.521815274538284 56.99999999999999 a86.0,86.0 0 0,1 29.574782752854787,-30.34633250058573" fill="none" id="id11" stroke="none" /><text fill="#e1ed5e" style="font-size:6.75px; font-family:Arial;" text-anchor="middle"><textPath startOffset="21.40746469413373" xlink:href="#id11">November</textPath></text><path d="M 82.18462484594161 88.88188828441811 l -14.490051860845938 -9.042864040769915 a38.080251549372875,38.080251549372875 0 0,0 0.350850236820926,-0.5515948469578831 l 14.332683932399123 9.290272562406471" fill="#ff8c0c" stroke="none" /><path d="M 82.98947788004972 87.6856937992154 l -7.024163541731281 -5.084952716167386 a29.671540669722134,29.671540669722134 0 0,0 0.30222298214715,-0.41002351888693755 l 6.9358385400003115 5.204782544323187" fill="#ff0801" stroke="none" /><path d="M 83.64595745247003 86.82634096563983 l -13.280857198632939 -10.698118456665181 a38.05376516911502,38.05376516911502 0 0,0 0.4141575747308321,-0.5052049000919349 l 13.095252804663476 10.92452563845561" fill="#ff8c0c" stroke="none" /><path d="M 84.58840730492382 85.73525988315684 l -6.363278604910165 -5.889755678471306 a29.670671055679165,29.670671055679165 0 0,0 0.34918729812100785,-0.37082480989239064 l 6.261235473052886 5.998121948308207" fill="#ff0801" stroke="none" /><path d="M 85.08716467003674 85.21462403516908 l -6.145184661787325 -6.092662031564311 a29.65354408079901,29.65354408079901 0 0,0 0.36150223245078356,-0.3584124883462851 l 6.039690509206565 6.197254530139269" fill="#ff0801" stroke="none" /><path d="M 85.34317274990677 84.96080404539775 l -11.71337439507668 -12.018954021311687 a37.78268141524597,37.78268141524597 0 0,0 0.46837483477020453,-0.4486924966424562 l 11.505327074441174 12.218258648259713" fill="#ff880c" stroke="none" /><path d="M 88.72937992617638 82.28071324371311 l -6.921325306759983 -10.881472983803528 a33.89616990812552,33.89616990812552 0 0,0 0.49365069783542725,-0.3080745456970611 l 6.733510480134857 10.998683326342126" fill="#ff4c07" stroke="none" /><line stroke="#e1ed5e" stroke-width="0.3" x1="56.869717070023135" x2="54.33264160355391" y1="26.7553504044142" y2="22.446841604673864" /><path d="M 56.362301976729285 25.89364864446614 a86.0,86.0 0 0,1 42.16139366436587,-11.88097634709845" fill="none" id="id12" stroke="none" /><text fill="#e1ed5e" style="font-size:6.75px; font-family:Arial;" text-anchor="middle"><textPath startOffset="22.145653131862474" xlink:href="#id12">December</textPath></text><path d="M 89.34428304082924 81.90426304109057 l -4.400272548315718 -7.472624778504625 a29.671938628690945,29.671938628690945 0 0,0 0.44113346347910837,-0.2546885238882138 l 4.271346616976211 7.547060199669012" fill="#ff0801" stroke="none" /><path d="M 90.28995756902619 81.37971332152246 l -4.0064105180269705 -7.682820433344718 a29.664701671146922,29.664701671146922 0 0,0 0.4535489610758514,-0.23158533118962538 l 3.8739343352375366 7.750463716207177" fill="#ff0801" stroke="none" /><path d="M 90.61103034731259 81.2157712731953 l -3.847621206926876 -7.697819833119992 a29.605847961425354,29.605847961425354 0 0,0 0.4565500202006448,-0.2233214928934013 l 3.714910937464178 7.762735076110607" fill="#ff0701" stroke="none" /><path d="M 91.5904679813234 80.7573450057729 l -4.947090464087416 -11.31991112159958 a33.35370761596609,33.35370761596609 0 0,0 0.5266152170702483,-0.224780721690829 l 4.752040171846736 11.403166492949813" fill="#ff4306" stroke="none" /><path d="M 92.25597844496254 80.48000691201159 l -4.752248673331225 -11.97877105539368 a33.88700211262169,33.88700211262169 0 0,0 0.542559526247799,-0.20987368025876343 l 4.545916884589897 12.058584623790486" fill="#ff4c07" stroke="none" /><path d="M 92.93061703081487 80.22567764915836 l -2.915065478155145 -8.15395695637276 a29.659366073120573,29.659366073120573 0 0,0 0.48089728346198957,-0.16728103841535757 l 2.7746624226481513 8.202796427356704" fill="#ff0801" stroke="none" /><path d="M 93.61358852112211 79.99465700312896 l -3.911127374582161 -12.25155079526999 a33.86069260301663,33.86069260301663 0 0,0 0.5552498416811217,-0.1720178202914386 l 3.7002369000294233 12.31688520336807" fill="#ff4b07" stroke="none" /><path d="M 95.00130118170881 79.60360301121753 l -2.0599086411006278 -8.405130201237974 a29.653868343662488,29.653868343662488 0 0,0 0.4954566151914876,-0.11692641212677013 l 1.9153198721692342 8.439252757010976" fill="#ff0801" stroke="none" /><path d="M 96.76829788921471 79.25015418208739 l -1.9401077473144492 -12.456883477150134 a33.60706008689122,33.60706008689122 0 0,0 0.5707997432061006,-0.08388790568260604 l 1.7259828985006638 12.488352456131626" fill="#ff4706" stroke="none" /><path d="M 97.48249496171623 79.15144685158666 l -1.5429072179610972 -12.77748510829655 a33.87030257515248,33.87030257515248 0 0,0 0.5778339721235776,-0.06474750182277537 l 1.3233373442367204 12.802088370626295" fill="#ff4b07" stroke="none" /><path d="M 98.9189461498227 79.02784411241856 l -0.44481659028709 -8.629323017862037 a29.64077991535476,29.64077991535476 0 0,0 0.5083735886291137,-0.021831749292658284 l 0.29661724105715614 8.635687335580522" fill="#ff0701" stroke="none" /><path d="M 99.27912038922189 79.0123766808444 l -0.44286912567901715 -12.893651381542439 a33.90125493939372,33.90125493939372 0 0,0 0.5817886150690917,-0.014984810977887246 l 0.22146719653918148 12.89935390987037" fill="#ff4c07" stroke="none" /><path d="M 99.63950707515114 79.00309439819443 l -0.3654596746504275 -21.286193877782353 a42.289330909550316,42.289330909550316 0 0,0 0.7259525994992744,-0.006231429962398712 l 5.21438219087392e-15 21.289330909550316" fill="#ffca12" stroke="none" /></svg>