<?xml version="1.0" encoding="utf-8" ?>
<svg baseProfile="full" height="200mm" version="1.1" viewBox="0,0,200,200" width="200mm" xmlns="http://www.w3.org/2000/svg" xmlns:ev="http://www.w3.org/2001/xml-events" xmlns:xlink="http://www.w3.org/1999/xlink"><defs /><rect fill="#1a1a1a" height="200" width="200" x="0" y="0" /><text alignment-baseline="middle" fill="#e1ed5e" style="dominant-baseline: central; font-size:9.0px; font-family:Arial;" text-anchor="middle" x="100.0" y="100.0">2025</text><line stroke="#e1ed5e" stroke-width="0.3" x1="100.0" x2="100.0" y1="15.0" y2="10.0" /><path d="M 100.0 14.0 a86.0,86.0 0 0,1 42.46469731375804,11.215312516191453" fill="none" id="id13" stroke="none" /><text fill="#e1ed5e" style="font-size:6.75px; font-family:Arial;" text-anchor="middle"><textPath startOffset="22.20632615414155" xlink:href="#id13">January</textPath></text><path d="M 100.72285384407766 79.0124445844662 l 0.44207631472283276 -12.835376375398525 a33.84298712006586,33.84298712006586 0 0,0 0.5820335741781695,0.025063590044258018 l -0.6629507212903337 12.825865058830072" fill="#ff4806" stroke="none" /><path d="M 101.80526077348638 79.07773832637324 l 0.7434995227258667 -8.616866769140259 a29.648883422581626,29.648883422581626 0 0,0 0.5080899120770347,0.04824925936665173 l -0.8917145618931456 8.60279196525843" fill="#ff0400" stroke="none" /><path d="M 102.88285421437855 79.19881850522331 l 1.7594278256874454 -12.695119075583955 a33.81645951958102,33.81645951958102 0 0,0 0.5758959474419452,0.0848720925156776 l -1.9776927535580462 12.662952498907309" fill="#ff4806" stroke="none" /><path d="M 103.59715602781102 79.31037775812273 l 2.199916029112001 -12.653171353780671 a33.84298936553635,33.84298936553635 0 0,0 0.5730824826117794,0.10472716064625973 l -2.417393632826681 12.613428711783673" fill="#ff4806" stroke="none" /><path d="M 103.95276090670814 79.375362276772 l 2.4150358338572837 -12.6011262349287 a33.830462987259,33.830462987259 0 0,0 0.5709834507601774,0.11453390868907351 l -2.6315856940845865 12.557688370162417" fill="#ff4806" stroke="none" /><path d="M 106.40334571778207 80.00007090966166 l 5.1968183160732195 -16.231514336045606 a38.04315047904959,38.04315047904959 0 0,0 0.6219460502606823,0.20504583429376555 l -5.475447188576319 16.139654777492606" fill="#ff890c" stroke="none" /><path d="M 108.43124777332544 80.76684994638697 l 5.055795247094667 -11.53315277192507 a33.5926438225302,33.5926438225302 0 0,0 0.5275930771736626,0.23671563475875748 l -5.25357044273511 11.444416806649782" fill="#ff4406" stroke="none" /><path d="M 108.76106565485865 80.91482961587045 l 5.260311539489529 -11.45910166180352 a33.60880202033623,33.60880202033623 0 0,0 0.5236920149129575,0.24588042294490767 l -5.456781765702085 11.366856256218611" fill="#ff4406" stroke="none" /><line stroke="#e1ed5e" stroke-width="0.3" x1="143.23703022742887" x2="145.7803849466894" y1="26.81831364943548" y2="22.513508569990506" /><path d="M 143.74570117128098 25.957352633546492 a86.0,86.0 0 0,1 28.547481713284135,27.462654790039103" fill="none" id="id14" stroke="none" /><text fill="#e1ed5e" style="font-size:6.75px; font-family:Arial;" text-anchor="middle"><textPath startOffset="19.985693538727396" xlink:href="#id14">February</textPath></text><path d="M 113.06298171725822 83.55741782278167 l 7.860476054847634 -9.894105823721278 a33.636471574764386,33.636471574764386 0 0,0 0.4502427544737318,0.3640649951663068 l -8.029622207885858 9.757334731290843" fill="#ff4506" stroke="none" /><path d="M 114.94478906791727 85.2469230424477 l 6.15669777672019 -6.077719510898547 a29.651219680890563,29.651219680890563 0 0,0 0.3554415056414214,0.3663137157539075 l -6.260403546064721 5.970841599594523" fill="#ff0400" stroke="none" /><path d="M 117.04232023915458 87.72973835380427 l 7.014850412580971 -5.050606300281711 a29.643885139873895,29.643885139873895 0 0,0 0.29458593946070905,0.4166709200237585 l -7.100748971845563 4.929108879926159" fill="#ff0400" stroke="none" /><line stroke="#e1ed5e" stroke-width="0.3" x1="172.23445277983987" x2="176.4835382374775" y1="55.19839476539836" y2="52.563006222186495" /><path d="M 173.08426987136738 54.67131705675599 a86.0,86.0 0 0,1 12.851231095245387,41.99856678651699" fill="none" id="id15" stroke="none" /><text fill="#e1ed5e" style="font-size:6.75px; font-family:Arial;" text-anchor="middle"><textPath startOffset="22.20632615414155" xlink:href="#id15">March</textPath></text><path d="M 118.03404312379186 89.2402003453031 l 10.808605804331368 -6.448827487152337 a33.58623595013526,33.58623595013526 0 0,0 0.2919448782692422,0.4990284322848539 l -10.918010357070937 6.261819642513588" fill="#ff4406" stroke="none" /><path d="M 118.21658344932153 89.55222093294921 l 7.491602256291938 -4.296667673699953 a29.636287250010657,29.636287250010657 0 0,0 0.24999246794294677,0.4447087055613132 l -7.564452365527318 4.167075458203846" fill="#ff0400" stroke="none" /><path d="M 118.73160827565052 90.50648371742162 l 7.489907889604791 -3.7960201525998474 a29.39693332078493,29.39693332078493 0 0,0 0.2248725232314484,0.4533292849272345 l -7.554140425789648 3.666531279173663" fill="#ff0000" stroke="none" /><path d="M 118.89224826269711 90.83032412892265 l 11.305396508730466 -5.4872675892026415 a33.56670584581054,33.56670584581054 0 0,0 0.2478210810055689,0.5219743988529735 l -11.398175783577791 5.291850774709127" fill="#ff4406" stroke="none" /><path d="M 119.196687751892 91.48605970444005 l 11.72282144498359 -5.199199110183115 a33.824048269493375,33.824048269493375 0 0,0 0.2314680936693236,0.5342602735492853 l -11.810580248495594 4.996639692047227" fill="#ff4806" stroke="none" /><path d="M 119.61058180528143 92.48833698450437 l 8.075590365511015 -3.093284741841009 a29.647749432403828,29.647749432403828 0 0,0 0.17844473759568513,0.478143179614614 l -8.127639691608325 2.953818425197062" fill="#ff0400" stroke="none" /><path d="M 119.7369772167798 92.82701384747503 l 8.087873673238109 -2.9393663084429265 a29.605438678502537,29.605438678502537 0 0,0 0.16994497256988494,0.48045732249118933 l -8.137271726617803 2.799711359525123" fill="#ff0300" stroke="none" /><path d="M 119.97218684219823 93.5106431181261 l 12.192972080440102 -3.9617367845529063 a33.82044954377464,33.82044954377464 0 0,0 0.17513278211331265,0.5552187786476189 l -12.259360346321621 3.7512678394788685" fill="#ff4806" stroke="none" /><path d="M 120.53481517161879 95.60439243477599 l 8.455620229869199 -1.8099791958412021 a29.64716937275726,29.64716937275726 0 0,0 0.10252372923699866,0.49994211432094565 l -8.485523255021194 1.6641614253568446" fill="#ff0400" stroke="none" /><path d="M 120.6074358757038 95.95851677861258 l 12.597507759007494 -2.4705944274878378 a33.83748567918921,33.83748567918921 0 0,0 0.10717504117437016,0.5725333554934527 l -12.638168524091723 2.253382994531822" fill="#ff4806" stroke="none" /><path d="M 120.78858239683441 97.02765380044208 l 12.72878574444106 -1.8199585334995019 a33.858236099541166,33.858236099541166 0 0,0 0.07752568840525438,0.5776564268814115 l -12.758227431904151 1.6005837645534262" fill="#ff4806" stroke="none" /><path d="M 120.83666639777658 97.38593545837742 l 12.742812837686053 -1.5986499262224858 a33.84270067403689,33.84270067403689 0 0,0 0.06753979231686141,0.5786396947147939 l -12.768442983006501 1.3790664931828391" fill="#ff4806" stroke="none" /><path d="M 120.96714384426684 98.82574320788733 l 62.90143153280055 -3.5227703763380056 a84.0,84.0 0 0,0 0.0684255670660141,1.444355573508001 l -62.95275070810006 2.4395036962070047" fill="#4dd2ff" stroke="none" /><line stroke="#e1ed5e" stroke-width="0.3" x1="184.98032266829074" x2="189.97916517819016" y1="98.17113171792111" y2="98.06355123074" /><path d="M 185.9800911702706 98.14961562048488 a86.0,86.0 0 0,1 -9.607161424134198,41.387399972396054" fill="none" id="id16" stroke="none" /><text fill="#e1ed5e" style="font-size:6.75px; font-family:Arial;" text-anchor="middle"><textPath startOffset="21.466115282336823" xlink:href="#id16">April</textPath></text><path d="M 120.95626037817324 101.35467743843564 l 16.988480162837476 1.0981878624622006 a38.023938287728306,38.023938287728306 0 0,0 -0.04784396679507778,0.6527929147102407 l -16.96705963737806 -1.3904539136692116" fill="#ff890c" stroke="none" /><line stroke="#e1ed5e" stroke-width="0.3" x1="174.80103733775053" x2="179.2010983576182" y1="140.37084112569926" y2="142.7455964860345" /><path d="M 175.68104954172406 140.8457921977663 a86.0,86.0 0 0,1 -30.038265399797805,32.042727171017184" fill="none" id="id17" stroke="none" /><text fill="#e1ed5e" style="font-size:6.75px; font-family:Arial;" text-anchor="middle"><textPath startOffset="22.206326154141568" xlink:href="#id17">May</textPath></text><line stroke="#e1ed5e" stroke-width="0.3" x1="143.8653032363475" x2="146.44561519142675" y1="172.8068346515853" y2="177.08958963109032" /><path d="M 144.38136562736335 173.6633856474863 a86.0,86.0 0 0,1 -40.68145358897372,12.25698825130547" fill="none" id="id18" stroke="none" /><text fill="#e1ed5e" style="font-size:6.75px; font-family:Arial;" text-anchor="middle"><textPath startOffset="21.466115282336833" xlink:href="#id18">June</textPath></text><line stroke="#e1ed5e" stroke-width="0.3" x1="102.19456741930631" x2="102.32365962044197" y1="184.97166512339345" y2="189.96999836594603" /><path d="M 102.22038585953345 185.97133177190398 a86.0,86.0 0 0,1 -42.740103519485714,-10.115201625700543" fill="none" id="id19" stroke="none" /><text fill="#e1ed5e" style="font-size:6.75px; font-family:Arial;" text-anchor="middle"><textPath startOffset="22.20632615414155" xlink:href="#id19">July</textPath></text><line stroke="#e1ed5e" stroke-width="0.3" x1="58.666819895761336" x2="56.23545636021788" y1="174.27360380694188" y2="178.64263932499728" /><path d="M 58.180547188652646 175.14741091055294 a86.0,86.0 0 0,1 -31.652253787137756,-30.449443065178592" fill="none" id="id20" stroke="none" /><text fill="#e1ed5e" style="font-size:6.75px; font-family:Arial;" text-anchor="middle"><textPath startOffset="22.20632615414155" xlink:href="#id20">August</textPath></text><line stroke="#e1ed5e" stroke-width="0.3" x1="26.63291911575756" x2="22.317208475507996" y1="142.92168965132927" y2="145.44649492493687" /><path d="M 25.769776987707644 143.4266507060508 a86.0,86.0 0 0,1 -11.730757126820373,-40.83630448921669" fill="none" id="id21" stroke="none" /><text fill="#e1ed5e" style="font-size:6.75px; font-family:Arial;" text-anchor="middle"><textPath startOffset="21.46611528233685" xlink:href="#id21">September</textPath></text><line stroke="#e1ed5e" stroke-width="0.3" x1="15.007084014347285" x2="10.007500721073583" y1="101.09737516637583" y2="101.16192664675087" /><path d="M 14.007167355692545 101.11028546245083 a86.0,86.0 0 0,1 10.666146001902534,-42.60595125391555" fill="none" id="id22" stroke="none" /><text fill="#e1ed5e" style="font-size:6.75px; font-family:Arial;" text-anchor="middle"><textPath startOffset="22.20632615414155" xlink:href="#id22">October</textPath></text><line stroke="#e1ed5e" stroke-width="0.3" x1="26.266209847984257" x2="21.92892807433627" y1="57.711370442889674" y2="55.22380399835377" /><path d="M 25.39875349325466 57.213857153982495 a86.0,86.0 0 0,1 29.58750427330802,-30.492523968695096" fill="none" id="id23" stroke="none" /><text fill="#e1ed5e" style="font-size:6.75px; font-family:Arial;" text-anchor="middle"><textPath startOffset="21.46611528233685" xlink:href="#id23">November</textPath></text><line stroke="#e1ed5e" stroke-width="0.3" x1="56.762969772571076" x2="54.21961505331055" y1="26.818313649435495" y2="22.513508569990535" /><path d="M 56.25429882871897 25.957352633546506 a86.0,86.0 0 0,1 42.265352541879196,-11.944610805530505" fill="none" id="id24" stroke="none" /><text fill="#e1ed5e" style="font-size:6.75px; font-family:Arial;" text-anchor="middle"><textPath startOffset="22.20632615414155" xlink:href="#id24">December</textPath></text></svg>